<svg xmlns="http://www.w3.org/2000/svg" width="14" height="14" viewBox="0 0 14 14" fill="none">
                <path d="M2.17621 6.37396L11.8984 3.67334V10.1548L2.17621 7.99433V6.37396Z" stroke="#D4F7F1" stroke-width="1.38889" stroke-linecap="round" stroke-linejoin="round"></path>
                <path d="M6.82123 9.50678C6.76448 9.71247 6.66778 9.90498 6.53664 10.0733C6.4055 10.2416 6.24249 10.3825 6.05691 10.4878C5.87134 10.5931 5.66684 10.6609 5.45508 10.6872C5.24333 10.7135 5.02847 10.6978 4.82277 10.641C4.61707 10.5843 4.42457 10.4876 4.25624 10.3564C4.08792 10.2253 3.94707 10.0623 3.84175 9.87672C3.73642 9.69115 3.66868 9.48664 3.64239 9.27489C3.61609 9.06313 3.63177 8.84828 3.68851 8.64258" stroke="#D4F7F1" stroke-width="1.38889" stroke-linecap="round" stroke-linejoin="round"></path>
            </svg>