<svg width="371" height="251" viewBox="0 0 371 251" fill="none" xmlns="http://www.w3.org/2000/svg">
<g clip-path="url(#clip0_1023_30892)">
<g opacity="0.6" filter="url(#filter0_f_1023_30892)">
<path d="M183.598 248.307C188.195 190.247 222.013 155.319 279.217 149.551L491.586 438.167C480.145 439.321 473.382 446.307 472.462 457.919L183.598 248.307Z" fill="url(#paint0_linear_1023_30892)" fill-opacity="0.35"/>
</g>
<g opacity="0.5">
<g filter="url(#filter1_f_1023_30892)">
<ellipse cx="282.288" cy="258.047" rx="126.918" ry="87.4611" transform="rotate(-180 282.288 258.047)" fill="#1DAA91"/>
</g>
</g>
<g style="mix-blend-mode:color-dodge">
<g filter="url(#filter2_f_1023_30892)">
<ellipse cx="61.4471" cy="163.708" rx="61.4471" ry="163.708" transform="matrix(-0.846366 0.532602 -0.656984 -0.753905 426.982 304.499)" fill="url(#paint1_radial_1023_30892)" style="mix-blend-mode:plus-lighter"/>
</g>
<g filter="url(#filter3_f_1023_30892)">
<ellipse cx="61.4471" cy="228.292" rx="61.4471" ry="228.292" transform="matrix(-0.846366 0.532602 -0.656984 -0.753905 426.982 392.859)" fill="url(#paint2_radial_1023_30892)" style="mix-blend-mode:plus-lighter"/>
</g>
<g filter="url(#filter4_f_1023_30892)">
<ellipse cx="61.4471" cy="163.708" rx="61.4471" ry="163.708" transform="matrix(-0.846366 0.532602 -0.656984 -0.753905 382.681 374.922)" fill="url(#paint3_radial_1023_30892)" style="mix-blend-mode:plus-lighter"/>
</g>
<g filter="url(#filter5_f_1023_30892)">
<ellipse cx="61.4471" cy="163.708" rx="61.4471" ry="163.708" transform="matrix(-0.846366 0.532602 -0.656984 -0.753905 520.579 340.534)" fill="url(#paint4_radial_1023_30892)" style="mix-blend-mode:plus-lighter"/>
</g>
</g>
<path fill-rule="evenodd" clip-rule="evenodd" d="M219.492 198.333C223.795 206.347 233.314 210.302 237.647 211.311C237.652 211.312 237.653 211.316 237.649 211.322C237.644 211.329 237.649 211.334 237.659 211.333L237.695 211.326C237.702 211.325 237.708 211.325 237.713 211.326L237.741 211.333C237.749 211.334 237.76 211.329 237.765 211.322C237.769 211.316 237.776 211.312 237.782 211.311C243.476 210.302 258.331 206.347 273.444 198.333C292.494 188.232 302.157 177.146 310.041 166.475C314.948 159.834 320.873 150.903 324.773 144.865C326.326 142.46 325.173 140.571 322.369 140.433C317.436 140.19 310.815 139.465 305.522 137.724C298.095 135.283 295.123 129.778 294.52 127.193C294.518 127.186 294.521 127.178 294.526 127.17L294.567 127.109C294.579 127.092 294.557 127.084 294.535 127.098C294.519 127.108 294.501 127.108 294.499 127.098C294.496 127.084 294.463 127.092 294.451 127.109L294.41 127.17C294.405 127.178 294.397 127.186 294.386 127.193C290.296 129.778 279.897 135.283 269.177 137.724C261.535 139.465 253.937 140.19 248.675 140.433C245.685 140.571 241.983 142.46 240.293 144.865C236.047 150.903 229.924 159.834 225.872 166.475C219.361 177.146 214.069 188.232 219.492 198.333ZM237.254 187.298C239.89 192.276 245.759 194.733 248.432 195.36C248.435 195.361 248.435 195.363 248.433 195.367C248.43 195.371 248.433 195.374 248.439 195.373L248.462 195.369C248.466 195.369 248.47 195.369 248.473 195.369L248.49 195.373C248.495 195.374 248.502 195.371 248.505 195.367C248.507 195.363 248.511 195.361 248.516 195.36C252.034 194.733 261.218 192.276 270.57 187.298C282.36 181.022 288.355 174.135 293.25 167.505C295.877 163.949 298.975 159.335 301.332 155.727C302.904 153.321 301.747 151.427 299.012 151.199C296.297 150.972 293.15 150.511 290.532 149.643C285.952 148.127 284.13 144.706 283.764 143.1C283.764 143.096 283.765 143.092 283.768 143.086L283.794 143.048C283.801 143.037 283.788 143.033 283.774 143.042C283.764 143.048 283.753 143.048 283.752 143.042C283.75 143.033 283.73 143.037 283.722 143.048L283.697 143.086C283.693 143.092 283.688 143.096 283.682 143.1C281.149 144.706 274.714 148.127 268.088 149.643C264.3 150.511 260.53 150.972 257.51 151.199C254.466 151.427 250.755 153.321 249.081 155.727C246.571 159.335 243.445 163.949 241.274 167.505C237.226 174.135 233.93 181.022 237.254 187.298Z" fill="url(#paint5_linear_1023_30892)" fill-opacity="0.2"/>
<g style="mix-blend-mode:plus-lighter">
<path d="M333.237 98.0091C337.613 100.573 340.126 104.732 340.885 110.102C341.644 115.475 340.642 122.04 338.016 129.369C332.765 144.026 321.036 161.681 304.062 178.848C287.087 196.016 268.104 209.421 251.15 217.222C242.672 221.123 234.719 223.615 227.789 224.483C220.862 225.35 214.986 224.593 210.609 222.029C206.233 219.465 203.72 215.307 202.961 209.936C202.202 204.563 203.203 197.998 205.829 190.669C211.081 176.012 222.81 158.357 239.785 141.189C256.76 124.022 275.742 110.616 292.696 102.816C301.174 98.9151 309.127 96.4239 316.057 95.5558C322.984 94.6882 328.861 95.4451 333.237 98.0091Z" stroke="url(#paint6_linear_1023_30892)" stroke-opacity="0.4" stroke-width="0.71"/>
</g>
<g style="mix-blend-mode:plus-lighter">
<path d="M341.852 77.9831C347.376 81.2195 350.541 86.4649 351.496 93.2255C352.452 99.9879 351.191 108.245 347.89 117.458C341.288 135.882 326.547 158.07 305.218 179.641C283.888 201.213 260.033 218.061 238.721 227.866C228.064 232.77 218.061 235.905 209.339 236.997C200.619 238.089 193.207 237.139 187.684 233.902C182.16 230.666 178.996 225.42 178.041 218.66C177.086 211.897 178.346 203.64 181.647 194.427C188.248 176.003 202.99 153.815 224.32 132.244C245.649 110.672 269.504 93.8241 290.816 84.0183C301.473 79.1151 311.476 75.9807 320.198 74.8881C328.918 73.7959 336.328 74.7469 341.852 77.9831Z" stroke="url(#paint7_linear_1023_30892)" stroke-opacity="0.4" stroke-width="0.71"/>
</g>
<g style="mix-blend-mode:plus-lighter">
<path d="M347.511 66.5714C353.738 70.2196 357.303 76.1309 358.378 83.7429C359.453 91.3566 358.034 100.65 354.32 111.017C346.891 131.75 330.305 156.714 306.307 180.984C282.31 205.254 255.469 224.211 231.487 235.245C219.495 240.762 208.236 244.291 198.416 245.521C188.599 246.751 180.247 245.681 174.02 242.033C167.793 238.385 164.23 232.473 163.155 224.861C162.079 217.247 163.498 207.954 167.212 197.587C174.64 176.854 191.228 151.89 215.225 127.62C239.223 103.35 266.063 84.393 290.045 73.3588C302.037 67.8414 313.296 64.3134 323.116 63.0833C332.934 61.8535 341.285 62.9232 347.511 66.5714Z" stroke="url(#paint8_linear_1023_30892)" stroke-opacity="0.4" stroke-width="0.71"/>
</g>
<g style="mix-blend-mode:plus-lighter">
<path d="M364.841 34.3125C372.648 38.8866 377.111 46.2941 378.456 55.8197C379.802 65.3471 378.026 76.9721 373.382 89.9329C364.094 115.854 343.359 147.059 313.365 177.394C283.37 207.729 249.82 231.426 219.837 245.222C204.845 252.119 190.762 256.533 178.474 258.073C166.188 259.612 155.723 258.274 147.916 253.7C140.109 249.126 135.648 241.718 134.302 232.193C132.956 222.665 134.732 211.041 139.376 198.08C148.663 172.159 169.399 140.954 199.394 110.619C229.388 80.2839 262.938 56.5867 292.921 42.7914C307.913 35.8935 321.996 31.4788 334.284 29.9395C346.57 28.4006 357.034 29.7385 364.841 34.3125Z" stroke="url(#paint9_linear_1023_30892)" stroke-opacity="0.4" stroke-width="0.71"/>
</g>
<g style="mix-blend-mode:plus-lighter">
<path d="M706.618 -11.5501C730.547 11.1851 740.18 41.154 737.061 75.9176C733.941 110.683 718.069 150.222 691.024 192.057C636.937 275.727 538.196 368.53 407.615 450.619C277.034 532.708 139.364 588.524 22.3554 612.413C-36.1495 624.358 -89.4705 628.317 -134.148 623.6C-178.823 618.882 -214.828 605.492 -238.758 582.756C-262.687 560.021 -272.319 530.052 -269.199 495.289C-266.079 460.523 -250.207 420.985 -223.163 379.149C-169.075 295.479 -70.3354 202.677 60.2458 120.588C70.1221 114.379 80.0389 108.32 89.9844 102.415L94.2486 99.8927C220.162 25.7364 350.367 -23.919 460.558 -44.1251C515.654 -54.2283 565.729 -56.9658 607.753 -51.733C649.774 -46.5007 683.722 -33.3028 706.618 -11.5501Z" stroke="url(#paint10_linear_1023_30892)" stroke-opacity="0.4" stroke-width="0.71"/>
</g>
<g opacity="0.6">
<path d="M216.395 144.914L231.881 135.123L270.429 184.013L256.343 195.203L216.395 144.914Z" fill="url(#paint11_linear_1023_30892)" style="mix-blend-mode:screen"/>
</g>
<g filter="url(#filter6_d_1023_30892)">
<circle cx="7.455" cy="7.455" r="7.455" transform="matrix(0.994235 -0.107223 -0.467077 0.884217 220.428 134.275)" fill="#51E1C8"/>
<g filter="url(#filter7_i_1023_30892)">
<circle cx="6.39" cy="6.39" r="6.39" transform="matrix(0.994235 -0.107223 -0.467077 0.884217 220.989 135.103)" fill="#51E1C8"/>
</g>
<g filter="url(#filter8_d_1023_30892)">
<path d="M222.673 143.937L223.05 143.224C223.78 143.073 224.474 142.79 225.133 142.377C225.796 141.958 226.298 141.419 226.64 140.76L225.627 140.869C225.4 141.275 225.095 141.608 224.712 141.868C224.326 142.122 223.914 142.304 223.479 142.413L224.553 140.38C224.911 140.274 225.233 140.166 225.517 140.057C225.795 139.949 226.089 139.816 226.399 139.659C226.702 139.503 226.969 139.32 227.199 139.11C227.43 138.901 227.613 138.668 227.748 138.412C227.999 137.937 228 137.553 227.751 137.26C227.503 136.967 227.055 136.836 226.409 136.867L226.729 136.26L226.067 136.332L225.742 136.947C225.019 137.086 224.345 137.361 223.719 137.77C223.096 138.174 222.627 138.662 222.312 139.234L223.339 139.115C223.561 138.754 223.848 138.463 224.199 138.24C224.546 138.012 224.918 137.851 225.314 137.758L224.263 139.747C223.373 139.988 222.66 140.275 222.125 140.608C221.584 140.941 221.186 141.348 220.931 141.83C220.665 142.335 220.657 142.725 220.908 143.001C221.163 143.271 221.652 143.378 222.374 143.322L222.012 144.009L222.673 143.937ZM224.996 139.542L225.989 137.66C226.388 137.645 226.656 137.717 226.792 137.876C226.922 138.036 226.923 138.238 226.794 138.481C226.675 138.707 226.467 138.904 226.171 139.07C225.878 139.23 225.487 139.388 224.996 139.542ZM222.798 142.52C222.393 142.547 222.11 142.493 221.947 142.359C221.781 142.22 221.769 142.017 221.91 141.749C222.051 141.482 222.275 141.262 222.581 141.088C222.889 140.909 223.303 140.742 223.82 140.585L222.798 142.52Z" fill="#112528"/>
</g>
</g>
<g opacity="0.6">
<path d="M242.456 135.083L250.154 130.216L269.318 154.52L262.315 160.083L242.456 135.083Z" fill="url(#paint12_linear_1023_30892)" style="mix-blend-mode:screen"/>
</g>
<g filter="url(#filter9_d_1023_30892)">
<circle cx="3.70599" cy="3.70599" r="3.70599" transform="matrix(0.994235 -0.107223 -0.467077 0.884217 244.461 129.795)" fill="#51E1C8"/>
<g filter="url(#filter10_i_1023_30892)">
<circle cx="3.17657" cy="3.17657" r="3.17657" transform="matrix(0.994235 -0.107223 -0.467077 0.884217 244.739 130.206)" fill="#51E1C8"/>
</g>
<g filter="url(#filter11_d_1023_30892)">
<path d="M245.577 134.598L245.764 134.243C246.126 134.168 246.472 134.028 246.799 133.822C247.129 133.614 247.378 133.346 247.548 133.018L247.045 133.073C246.932 133.274 246.781 133.44 246.59 133.569C246.398 133.696 246.194 133.786 245.977 133.84L246.511 132.829C246.689 132.777 246.849 132.723 246.99 132.669C247.129 132.615 247.275 132.549 247.429 132.471C247.579 132.394 247.712 132.303 247.826 132.198C247.941 132.094 248.032 131.978 248.099 131.851C248.224 131.615 248.225 131.424 248.101 131.278C247.977 131.133 247.755 131.068 247.433 131.083L247.593 130.781L247.264 130.817L247.102 131.123C246.743 131.192 246.407 131.329 246.096 131.532C245.787 131.733 245.553 131.975 245.397 132.26L245.908 132.2C246.018 132.021 246.16 131.876 246.335 131.766C246.507 131.652 246.692 131.572 246.889 131.526L246.367 132.515C245.924 132.635 245.57 132.777 245.304 132.943C245.035 133.108 244.837 133.311 244.711 133.55C244.578 133.801 244.574 133.995 244.699 134.132C244.826 134.266 245.069 134.32 245.428 134.292L245.248 134.633L245.577 134.598ZM246.731 132.413L247.225 131.477C247.423 131.47 247.556 131.506 247.624 131.585C247.689 131.664 247.689 131.765 247.625 131.886C247.566 131.998 247.463 132.095 247.315 132.178C247.17 132.258 246.975 132.336 246.731 132.413ZM245.639 133.893C245.437 133.906 245.296 133.88 245.216 133.813C245.133 133.744 245.127 133.643 245.197 133.51C245.267 133.377 245.378 133.268 245.53 133.182C245.684 133.093 245.889 133.009 246.147 132.931L245.639 133.893Z" fill="#112528"/>
</g>
</g>
<mask id="mask0_1023_30892" style="mask-type:alpha" maskUnits="userSpaceOnUse" x="235" y="143" width="69" height="53">
<path d="M248.231 195.506C245.56 194.881 239.685 192.424 237.047 187.442C233.723 181.166 237.02 174.279 241.067 167.649C244.305 162.346 249.667 154.69 251.943 151.526C254.444 151.59 261.133 151.333 267.881 149.788C274.516 148.269 280.959 144.842 283.485 143.239L283.539 143.158C283.542 143.172 283.545 143.185 283.548 143.199C283.569 143.185 283.59 143.172 283.611 143.158L283.557 143.239C283.919 144.842 285.74 148.269 290.325 149.788C294.99 151.333 301.332 151.59 303.92 151.526C301.926 154.69 296.961 162.346 293.044 167.649C288.148 174.279 282.153 181.166 270.364 187.442C261.005 192.424 251.816 194.881 248.302 195.506L248.293 195.52C248.282 195.518 248.272 195.515 248.262 195.513C248.248 195.515 248.234 195.518 248.221 195.52L248.231 195.506Z" fill="#D9D9D9"/>
<path d="M248.231 195.506C245.56 194.881 239.685 192.424 237.047 187.442C233.723 181.166 237.02 174.279 241.067 167.649C244.305 162.346 249.667 154.69 251.943 151.526C254.444 151.59 261.133 151.333 267.881 149.788C274.516 148.269 280.959 144.842 283.485 143.239L283.539 143.158C283.542 143.172 283.545 143.185 283.548 143.199C283.569 143.185 283.59 143.172 283.611 143.158L283.557 143.239C283.919 144.842 285.74 148.269 290.325 149.788C294.99 151.333 301.332 151.59 303.92 151.526C301.926 154.69 296.961 162.346 293.044 167.649C288.148 174.279 282.153 181.166 270.364 187.442C261.005 192.424 251.816 194.881 248.302 195.506L248.293 195.52C248.282 195.518 248.272 195.515 248.262 195.513C248.248 195.515 248.234 195.518 248.221 195.52L248.231 195.506Z" fill="#D9D9D9"/>
</mask>
<g mask="url(#mask0_1023_30892)">
<g filter="url(#filter12_d_1023_30892)">
<circle cx="277.396" cy="179.932" r="23.7948" fill="#D9D9D9" fill-opacity="0.05" shape-rendering="crispEdges"/>
</g>
</g>
<g opacity="0.6">
<path d="M270.941 152.105L281.199 145.621L306.731 178.002L297.401 185.414L270.941 152.105Z" fill="url(#paint13_linear_1023_30892)" style="mix-blend-mode:screen"/>
</g>
<g filter="url(#filter13_d_1023_30892)">
<circle cx="4.93776" cy="4.93776" r="4.93776" transform="matrix(0.994235 -0.107223 -0.467077 0.884217 273.612 145.059)" fill="#51E1C8"/>
<g filter="url(#filter14_i_1023_30892)">
<circle cx="4.23237" cy="4.23237" r="4.23237" transform="matrix(0.994235 -0.107223 -0.467077 0.884217 273.983 145.607)" fill="#51E1C8"/>
</g>
<g filter="url(#filter15_d_1023_30892)">
<path d="M275.099 151.458L275.349 150.986C275.832 150.886 276.292 150.699 276.729 150.425C277.168 150.148 277.5 149.79 277.727 149.354L277.056 149.426C276.906 149.695 276.704 149.915 276.45 150.088C276.194 150.256 275.921 150.377 275.633 150.449L276.344 149.102C276.582 149.032 276.795 148.961 276.983 148.888C277.167 148.816 277.362 148.729 277.567 148.625C277.768 148.522 277.944 148.4 278.097 148.261C278.25 148.122 278.371 147.968 278.46 147.799C278.627 147.484 278.628 147.229 278.463 147.036C278.298 146.842 278.001 146.755 277.573 146.775L277.785 146.374L277.347 146.421L277.132 146.828C276.653 146.921 276.206 147.103 275.792 147.374C275.379 147.641 275.069 147.964 274.86 148.343L275.541 148.264C275.687 148.026 275.877 147.832 276.11 147.685C276.34 147.534 276.586 147.427 276.848 147.366L276.152 148.683C275.563 148.843 275.091 149.033 274.736 149.253C274.378 149.474 274.114 149.744 273.946 150.062C273.769 150.397 273.764 150.656 273.93 150.838C274.099 151.017 274.423 151.088 274.901 151.051L274.661 151.506L275.099 151.458ZM276.637 148.547L277.296 147.301C277.56 147.291 277.737 147.339 277.827 147.444C277.914 147.55 277.914 147.683 277.829 147.845C277.75 147.994 277.612 148.124 277.416 148.235C277.222 148.341 276.963 148.445 276.637 148.547ZM275.182 150.519C274.914 150.537 274.726 150.502 274.618 150.413C274.508 150.321 274.5 150.186 274.594 150.009C274.687 149.832 274.835 149.686 275.038 149.571C275.242 149.453 275.516 149.342 275.859 149.238L275.182 150.519Z" fill="#112528"/>
</g>
</g>
<g opacity="0.6">
<path d="M234.457 175.083L242.155 170.216L261.319 194.52L254.316 200.083L234.457 175.083Z" fill="url(#paint14_linear_1023_30892)" style="mix-blend-mode:screen"/>
</g>
<g filter="url(#filter16_d_1023_30892)">
<circle cx="3.70599" cy="3.70599" r="3.70599" transform="matrix(0.994235 -0.107223 -0.467077 0.884217 236.462 169.795)" fill="#51E1C8"/>
<g filter="url(#filter17_i_1023_30892)">
<circle cx="3.17657" cy="3.17657" r="3.17657" transform="matrix(0.994235 -0.107223 -0.467077 0.884217 236.74 170.206)" fill="#51E1C8"/>
</g>
<g filter="url(#filter18_d_1023_30892)">
<path d="M237.578 174.598L237.765 174.243C238.127 174.168 238.473 174.028 238.8 173.822C239.13 173.614 239.379 173.346 239.549 173.018L239.046 173.073C238.933 173.274 238.782 173.44 238.591 173.569C238.399 173.696 238.195 173.786 237.978 173.84L238.512 172.829C238.69 172.777 238.85 172.723 238.991 172.669C239.13 172.615 239.276 172.549 239.43 172.471C239.58 172.394 239.713 172.303 239.827 172.198C239.942 172.094 240.033 171.978 240.1 171.851C240.225 171.615 240.226 171.424 240.102 171.278C239.978 171.133 239.756 171.068 239.434 171.083L239.594 170.781L239.265 170.817L239.103 171.123C238.744 171.192 238.408 171.329 238.097 171.532C237.788 171.733 237.554 171.975 237.398 172.26L237.909 172.2C238.019 172.021 238.161 171.876 238.336 171.766C238.508 171.652 238.693 171.572 238.89 171.526L238.368 172.515C237.925 172.635 237.571 172.777 237.305 172.943C237.036 173.108 236.838 173.311 236.712 173.55C236.579 173.801 236.575 173.995 236.7 174.132C236.827 174.266 237.07 174.32 237.429 174.292L237.249 174.633L237.578 174.598ZM238.732 172.413L239.226 171.477C239.424 171.47 239.557 171.506 239.625 171.585C239.69 171.664 239.69 171.765 239.626 171.886C239.567 171.998 239.463 172.095 239.316 172.178C239.171 172.258 238.976 172.336 238.732 172.413ZM237.64 173.893C237.438 173.906 237.297 173.88 237.216 173.813C237.134 173.744 237.128 173.643 237.198 173.51C237.268 173.377 237.379 173.268 237.531 173.182C237.685 173.093 237.89 173.009 238.148 172.931L237.64 173.893Z" fill="#112528"/>
</g>
</g>
<g style="mix-blend-mode:plus-lighter">
<path d="M-153 74.0522C-56.1886 94.0792 163.082 150.918 265.677 218.057" stroke="url(#paint15_linear_1023_30892)" stroke-opacity="0.4" stroke-width="0.71"/>
</g>
<g filter="url(#filter19_d_1023_30892)">
<circle cx="1.46707" cy="1.46707" r="1.46707" transform="matrix(1.22345 -0.032554 0.0563852 0.706357 48 126.096)" fill="#51E1C8"/>
</g>
<g filter="url(#filter20_d_1023_30892)">
<circle cx="1.46707" cy="1.46707" r="1.46707" transform="matrix(1.22345 -0.032554 0.0563852 0.706357 191 245.096)" fill="#51E1C8"/>
</g>
<g filter="url(#filter21_f_1023_30892)">
<circle cx="349" cy="85.3332" r="2.66667" fill="#51E1C8"/>
</g>
<g filter="url(#filter22_i_1023_30892)">
<circle cx="4" cy="4" r="4" transform="matrix(-1 0 0 1 353 82)" fill="white" fill-opacity="0.02"/>
</g>
<circle cx="2.22222" cy="2.22222" r="2.22222" transform="matrix(-1 0 0 1 351.224 83.7783)" fill="#51E1C8"/>
<g filter="url(#filter23_f_1023_30892)">
<circle cx="136.003" cy="208.168" r="3.33464" fill="#51E1C8"/>
</g>
<g filter="url(#filter24_i_1023_30892)">
<circle cx="5.00195" cy="5.00195" r="5.00195" transform="matrix(-1 0 0 1 141.004 204)" fill="white" fill-opacity="0.02"/>
</g>
<circle cx="2.77886" cy="2.77886" r="2.77886" transform="matrix(-1 0 0 1 138.781 206.224)" fill="#51E1C8"/>
</g>
<defs>
<filter id="filter0_f_1023_30892" x="130.861" y="96.8138" width="413.462" height="413.842" filterUnits="userSpaceOnUse" color-interpolation-filters="sRGB">
<feFlood flood-opacity="0" result="BackgroundImageFix"/>
<feBlend mode="normal" in="SourceGraphic" in2="BackgroundImageFix" result="shape"/>
<feGaussianBlur stdDeviation="26.3687" result="effect1_foregroundBlur_1023_30892"/>
</filter>
<filter id="filter1_f_1023_30892" x="-35.0865" y="-19.8722" width="634.75" height="555.838" filterUnits="userSpaceOnUse" color-interpolation-filters="sRGB">
<feFlood flood-opacity="0" result="BackgroundImageFix"/>
<feBlend mode="normal" in="SourceGraphic" in2="BackgroundImageFix" result="shape"/>
<feGaussianBlur stdDeviation="95.2288" result="effect1_foregroundBlur_1023_30892"/>
</filter>
<filter id="filter2_f_1023_30892" x="121.733" y="59.8932" width="291.38" height="307.824" filterUnits="userSpaceOnUse" color-interpolation-filters="sRGB">
<feFlood flood-opacity="0" result="BackgroundImageFix"/>
<feBlend mode="normal" in="SourceGraphic" in2="BackgroundImageFix" result="shape"/>
<feGaussianBlur stdDeviation="13.0976" result="effect1_foregroundBlur_1023_30892"/>
</filter>
<filter id="filter3_f_1023_30892" x="40.0079" y="52.0534" width="369.967" height="402.843" filterUnits="userSpaceOnUse" color-interpolation-filters="sRGB">
<feFlood flood-opacity="0" result="BackgroundImageFix"/>
<feBlend mode="normal" in="SourceGraphic" in2="BackgroundImageFix" result="shape"/>
<feGaussianBlur stdDeviation="13.0976" result="effect1_foregroundBlur_1023_30892"/>
</filter>
<filter id="filter4_f_1023_30892" x="77.4308" y="130.316" width="291.38" height="307.824" filterUnits="userSpaceOnUse" color-interpolation-filters="sRGB">
<feFlood flood-opacity="0" result="BackgroundImageFix"/>
<feBlend mode="normal" in="SourceGraphic" in2="BackgroundImageFix" result="shape"/>
<feGaussianBlur stdDeviation="13.0976" result="effect1_foregroundBlur_1023_30892"/>
</filter>
<filter id="filter5_f_1023_30892" x="215.329" y="95.9284" width="291.38" height="307.824" filterUnits="userSpaceOnUse" color-interpolation-filters="sRGB">
<feFlood flood-opacity="0" result="BackgroundImageFix"/>
<feBlend mode="normal" in="SourceGraphic" in2="BackgroundImageFix" result="shape"/>
<feGaussianBlur stdDeviation="13.0976" result="effect1_foregroundBlur_1023_30892"/>
</filter>
<filter id="filter6_d_1023_30892" x="213.817" y="131.078" width="21.0811" height="17.9805" filterUnits="userSpaceOnUse" color-interpolation-filters="sRGB">
<feFlood flood-opacity="0" result="BackgroundImageFix"/>
<feColorMatrix in="SourceAlpha" type="matrix" values="0 0 0 0 0 0 0 0 0 0 0 0 0 0 0 0 0 0 127 0" result="hardAlpha"/>
<feOffset/>
<feGaussianBlur stdDeviation="1.17482"/>
<feComposite in2="hardAlpha" operator="out"/>
<feColorMatrix type="matrix" values="0 0 0 0 0.248241 0 0 0 0 0.871759 0 0 0 0 0.761206 0 0 0 1 0"/>
<feBlend mode="normal" in2="BackgroundImageFix" result="effect1_dropShadow_1023_30892"/>
<feBlend mode="normal" in="SourceGraphic" in2="effect1_dropShadow_1023_30892" result="shape"/>
</filter>
<filter id="filter7_i_1023_30892" x="217.337" y="134.376" width="14.042" height="12.4493" filterUnits="userSpaceOnUse" color-interpolation-filters="sRGB">
<feFlood flood-opacity="0" result="BackgroundImageFix"/>
<feBlend mode="normal" in="SourceGraphic" in2="BackgroundImageFix" result="shape"/>
<feColorMatrix in="SourceAlpha" type="matrix" values="0 0 0 0 0 0 0 0 0 0 0 0 0 0 0 0 0 0 127 0" result="hardAlpha"/>
<feOffset dy="1.065"/>
<feGaussianBlur stdDeviation="0.568"/>
<feComposite in2="hardAlpha" operator="arithmetic" k2="-1" k3="1"/>
<feColorMatrix type="matrix" values="0 0 0 0 0 0 0 0 0 0 0 0 0 0 0 0 0 0 0.25 0"/>
<feBlend mode="normal" in2="shape" result="effect1_innerShadow_1023_30892"/>
</filter>
<filter id="filter8_d_1023_30892" x="218.205" y="133.739" width="12.254" height="12.7906" filterUnits="userSpaceOnUse" color-interpolation-filters="sRGB">
<feFlood flood-opacity="0" result="BackgroundImageFix"/>
<feColorMatrix in="SourceAlpha" type="matrix" values="0 0 0 0 0 0 0 0 0 0 0 0 0 0 0 0 0 0 127 0" result="hardAlpha"/>
<feOffset/>
<feGaussianBlur stdDeviation="1.26052"/>
<feComposite in2="hardAlpha" operator="out"/>
<feColorMatrix type="matrix" values="0 0 0 0 1 0 0 0 0 1 0 0 0 0 1 0 0 0 0.3 0"/>
<feBlend mode="normal" in2="BackgroundImageFix" result="effect1_dropShadow_1023_30892"/>
<feBlend mode="normal" in="SourceGraphic" in2="effect1_dropShadow_1023_30892" result="shape"/>
</filter>
<filter id="filter9_d_1023_30892" x="241.175" y="128.205" width="10.4796" height="8.93862" filterUnits="userSpaceOnUse" color-interpolation-filters="sRGB">
<feFlood flood-opacity="0" result="BackgroundImageFix"/>
<feColorMatrix in="SourceAlpha" type="matrix" values="0 0 0 0 0 0 0 0 0 0 0 0 0 0 0 0 0 0 127 0" result="hardAlpha"/>
<feOffset/>
<feGaussianBlur stdDeviation="0.584021"/>
<feComposite in2="hardAlpha" operator="out"/>
<feColorMatrix type="matrix" values="0 0 0 0 0.248241 0 0 0 0 0.871759 0 0 0 0 0.761206 0 0 0 1 0"/>
<feBlend mode="normal" in2="BackgroundImageFix" result="effect1_dropShadow_1023_30892"/>
<feBlend mode="normal" in="SourceGraphic" in2="effect1_dropShadow_1023_30892" result="shape"/>
</filter>
<filter id="filter10_i_1023_30892" x="242.924" y="129.845" width="6.98047" height="6.18861" filterUnits="userSpaceOnUse" color-interpolation-filters="sRGB">
<feFlood flood-opacity="0" result="BackgroundImageFix"/>
<feBlend mode="normal" in="SourceGraphic" in2="BackgroundImageFix" result="shape"/>
<feColorMatrix in="SourceAlpha" type="matrix" values="0 0 0 0 0 0 0 0 0 0 0 0 0 0 0 0 0 0 127 0" result="hardAlpha"/>
<feOffset dy="0.529428"/>
<feGaussianBlur stdDeviation="0.282361"/>
<feComposite in2="hardAlpha" operator="arithmetic" k2="-1" k3="1"/>
<feColorMatrix type="matrix" values="0 0 0 0 0 0 0 0 0 0 0 0 0 0 0 0 0 0 0.25 0"/>
<feBlend mode="normal" in2="shape" result="effect1_innerShadow_1023_30892"/>
</filter>
<filter id="filter11_d_1023_30892" x="243.355" y="129.528" width="6.09145" height="6.35854" filterUnits="userSpaceOnUse" color-interpolation-filters="sRGB">
<feFlood flood-opacity="0" result="BackgroundImageFix"/>
<feColorMatrix in="SourceAlpha" type="matrix" values="0 0 0 0 0 0 0 0 0 0 0 0 0 0 0 0 0 0 127 0" result="hardAlpha"/>
<feOffset/>
<feGaussianBlur stdDeviation="0.626622"/>
<feComposite in2="hardAlpha" operator="out"/>
<feColorMatrix type="matrix" values="0 0 0 0 1 0 0 0 0 1 0 0 0 0 1 0 0 0 0.3 0"/>
<feBlend mode="normal" in2="BackgroundImageFix" result="effect1_dropShadow_1023_30892"/>
<feBlend mode="normal" in="SourceGraphic" in2="effect1_dropShadow_1023_30892" result="shape"/>
</filter>
<filter id="filter12_d_1023_30892" x="238.881" y="140.782" width="73.2248" height="73.2248" filterUnits="userSpaceOnUse" color-interpolation-filters="sRGB">
<feFlood flood-opacity="0" result="BackgroundImageFix"/>
<feColorMatrix in="SourceAlpha" type="matrix" values="0 0 0 0 0 0 0 0 0 0 0 0 0 0 0 0 0 0 127 0" result="hardAlpha"/>
<feOffset dx="-1.90359" dy="-2.53811"/>
<feGaussianBlur stdDeviation="6.40874"/>
<feComposite in2="hardAlpha" operator="out"/>
<feColorMatrix type="matrix" values="0 0 0 0 0.317647 0 0 0 0 0.882353 0 0 0 0 0.784314 0 0 0 0.88 0"/>
<feBlend mode="screen" in2="BackgroundImageFix" result="effect1_dropShadow_1023_30892"/>
<feBlend mode="normal" in="SourceGraphic" in2="effect1_dropShadow_1023_30892" result="shape"/>
</filter>
<filter id="filter13_d_1023_30892" x="269.234" y="142.941" width="13.9631" height="11.9094" filterUnits="userSpaceOnUse" color-interpolation-filters="sRGB">
<feFlood flood-opacity="0" result="BackgroundImageFix"/>
<feColorMatrix in="SourceAlpha" type="matrix" values="0 0 0 0 0 0 0 0 0 0 0 0 0 0 0 0 0 0 127 0" result="hardAlpha"/>
<feOffset/>
<feGaussianBlur stdDeviation="0.778133"/>
<feComposite in2="hardAlpha" operator="out"/>
<feColorMatrix type="matrix" values="0 0 0 0 0.248241 0 0 0 0 0.871759 0 0 0 0 0.761206 0 0 0 1 0"/>
<feBlend mode="normal" in2="BackgroundImageFix" result="effect1_dropShadow_1023_30892"/>
<feBlend mode="normal" in="SourceGraphic" in2="effect1_dropShadow_1023_30892" result="shape"/>
</filter>
<filter id="filter14_i_1023_30892" x="271.564" y="145.125" width="9.30078" height="8.24543" filterUnits="userSpaceOnUse" color-interpolation-filters="sRGB">
<feFlood flood-opacity="0" result="BackgroundImageFix"/>
<feBlend mode="normal" in="SourceGraphic" in2="BackgroundImageFix" result="shape"/>
<feColorMatrix in="SourceAlpha" type="matrix" values="0 0 0 0 0 0 0 0 0 0 0 0 0 0 0 0 0 0 127 0" result="hardAlpha"/>
<feOffset dy="0.705395"/>
<feGaussianBlur stdDeviation="0.376211"/>
<feComposite in2="hardAlpha" operator="arithmetic" k2="-1" k3="1"/>
<feColorMatrix type="matrix" values="0 0 0 0 0 0 0 0 0 0 0 0 0 0 0 0 0 0 0.25 0"/>
<feBlend mode="normal" in2="shape" result="effect1_innerShadow_1023_30892"/>
</filter>
<filter id="filter15_d_1023_30892" x="272.14" y="144.704" width="8.11594" height="8.4719" filterUnits="userSpaceOnUse" color-interpolation-filters="sRGB">
<feFlood flood-opacity="0" result="BackgroundImageFix"/>
<feColorMatrix in="SourceAlpha" type="matrix" values="0 0 0 0 0 0 0 0 0 0 0 0 0 0 0 0 0 0 127 0" result="hardAlpha"/>
<feOffset/>
<feGaussianBlur stdDeviation="0.834894"/>
<feComposite in2="hardAlpha" operator="out"/>
<feColorMatrix type="matrix" values="0 0 0 0 1 0 0 0 0 1 0 0 0 0 1 0 0 0 0.3 0"/>
<feBlend mode="normal" in2="BackgroundImageFix" result="effect1_dropShadow_1023_30892"/>
<feBlend mode="normal" in="SourceGraphic" in2="effect1_dropShadow_1023_30892" result="shape"/>
</filter>
<filter id="filter16_d_1023_30892" x="233.176" y="168.205" width="10.4796" height="8.93862" filterUnits="userSpaceOnUse" color-interpolation-filters="sRGB">
<feFlood flood-opacity="0" result="BackgroundImageFix"/>
<feColorMatrix in="SourceAlpha" type="matrix" values="0 0 0 0 0 0 0 0 0 0 0 0 0 0 0 0 0 0 127 0" result="hardAlpha"/>
<feOffset/>
<feGaussianBlur stdDeviation="0.584021"/>
<feComposite in2="hardAlpha" operator="out"/>
<feColorMatrix type="matrix" values="0 0 0 0 0.248241 0 0 0 0 0.871759 0 0 0 0 0.761206 0 0 0 1 0"/>
<feBlend mode="normal" in2="BackgroundImageFix" result="effect1_dropShadow_1023_30892"/>
<feBlend mode="normal" in="SourceGraphic" in2="effect1_dropShadow_1023_30892" result="shape"/>
</filter>
<filter id="filter17_i_1023_30892" x="234.925" y="169.845" width="6.98047" height="6.18861" filterUnits="userSpaceOnUse" color-interpolation-filters="sRGB">
<feFlood flood-opacity="0" result="BackgroundImageFix"/>
<feBlend mode="normal" in="SourceGraphic" in2="BackgroundImageFix" result="shape"/>
<feColorMatrix in="SourceAlpha" type="matrix" values="0 0 0 0 0 0 0 0 0 0 0 0 0 0 0 0 0 0 127 0" result="hardAlpha"/>
<feOffset dy="0.529428"/>
<feGaussianBlur stdDeviation="0.282361"/>
<feComposite in2="hardAlpha" operator="arithmetic" k2="-1" k3="1"/>
<feColorMatrix type="matrix" values="0 0 0 0 0 0 0 0 0 0 0 0 0 0 0 0 0 0 0.25 0"/>
<feBlend mode="normal" in2="shape" result="effect1_innerShadow_1023_30892"/>
</filter>
<filter id="filter18_d_1023_30892" x="235.356" y="169.528" width="6.09145" height="6.35854" filterUnits="userSpaceOnUse" color-interpolation-filters="sRGB">
<feFlood flood-opacity="0" result="BackgroundImageFix"/>
<feColorMatrix in="SourceAlpha" type="matrix" values="0 0 0 0 0 0 0 0 0 0 0 0 0 0 0 0 0 0 127 0" result="hardAlpha"/>
<feOffset/>
<feGaussianBlur stdDeviation="0.626622"/>
<feComposite in2="hardAlpha" operator="out"/>
<feColorMatrix type="matrix" values="0 0 0 0 1 0 0 0 0 1 0 0 0 0 1 0 0 0 0.3 0"/>
<feBlend mode="normal" in2="BackgroundImageFix" result="effect1_dropShadow_1023_30892"/>
<feBlend mode="normal" in="SourceGraphic" in2="effect1_dropShadow_1023_30892" result="shape"/>
</filter>
<filter id="filter19_d_1023_30892" x="46.614" y="124.58" width="6.52789" height="5.00884" filterUnits="userSpaceOnUse" color-interpolation-filters="sRGB">
<feFlood flood-opacity="0" result="BackgroundImageFix"/>
<feColorMatrix in="SourceAlpha" type="matrix" values="0 0 0 0 0 0 0 0 0 0 0 0 0 0 0 0 0 0 127 0" result="hardAlpha"/>
<feOffset/>
<feGaussianBlur stdDeviation="0.733534"/>
<feComposite in2="hardAlpha" operator="out"/>
<feColorMatrix type="matrix" values="0 0 0 0 0.317647 0 0 0 0 0.882353 0 0 0 0 0.784314 0 0 0 1 0"/>
<feBlend mode="normal" in2="BackgroundImageFix" result="effect1_dropShadow_1023_30892"/>
<feBlend mode="normal" in="SourceGraphic" in2="effect1_dropShadow_1023_30892" result="shape"/>
</filter>
<filter id="filter20_d_1023_30892" x="189.614" y="243.58" width="6.52789" height="5.00884" filterUnits="userSpaceOnUse" color-interpolation-filters="sRGB">
<feFlood flood-opacity="0" result="BackgroundImageFix"/>
<feColorMatrix in="SourceAlpha" type="matrix" values="0 0 0 0 0 0 0 0 0 0 0 0 0 0 0 0 0 0 127 0" result="hardAlpha"/>
<feOffset/>
<feGaussianBlur stdDeviation="0.733534"/>
<feComposite in2="hardAlpha" operator="out"/>
<feColorMatrix type="matrix" values="0 0 0 0 0.317647 0 0 0 0 0.882353 0 0 0 0 0.784314 0 0 0 1 0"/>
<feBlend mode="normal" in2="BackgroundImageFix" result="effect1_dropShadow_1023_30892"/>
<feBlend mode="normal" in="SourceGraphic" in2="effect1_dropShadow_1023_30892" result="shape"/>
</filter>
<filter id="filter21_f_1023_30892" x="335.488" y="71.8217" width="27.0226" height="27.0231" filterUnits="userSpaceOnUse" color-interpolation-filters="sRGB">
<feFlood flood-opacity="0" result="BackgroundImageFix"/>
<feBlend mode="normal" in="SourceGraphic" in2="BackgroundImageFix" result="shape"/>
<feGaussianBlur stdDeviation="5.42241" result="effect1_foregroundBlur_1023_30892"/>
</filter>
<filter id="filter22_i_1023_30892" x="345" y="82" width="8" height="8" filterUnits="userSpaceOnUse" color-interpolation-filters="sRGB">
<feFlood flood-opacity="0" result="BackgroundImageFix"/>
<feBlend mode="normal" in="SourceGraphic" in2="BackgroundImageFix" result="shape"/>
<feColorMatrix in="SourceAlpha" type="matrix" values="0 0 0 0 0 0 0 0 0 0 0 0 0 0 0 0 0 0 127 0" result="hardAlpha"/>
<feOffset/>
<feGaussianBlur stdDeviation="1.1"/>
<feComposite in2="hardAlpha" operator="arithmetic" k2="-1" k3="1"/>
<feColorMatrix type="matrix" values="0 0 0 0 1 0 0 0 0 1 0 0 0 0 1 0 0 0 0.5 0"/>
<feBlend mode="normal" in2="shape" result="effect1_innerShadow_1023_30892"/>
</filter>
<filter id="filter23_f_1023_30892" x="119.107" y="191.272" width="33.7916" height="33.7921" filterUnits="userSpaceOnUse" color-interpolation-filters="sRGB">
<feFlood flood-opacity="0" result="BackgroundImageFix"/>
<feBlend mode="normal" in="SourceGraphic" in2="BackgroundImageFix" result="shape"/>
<feGaussianBlur stdDeviation="6.78066" result="effect1_foregroundBlur_1023_30892"/>
</filter>
<filter id="filter24_i_1023_30892" x="131" y="204" width="10.0039" height="10.0039" filterUnits="userSpaceOnUse" color-interpolation-filters="sRGB">
<feFlood flood-opacity="0" result="BackgroundImageFix"/>
<feBlend mode="normal" in="SourceGraphic" in2="BackgroundImageFix" result="shape"/>
<feColorMatrix in="SourceAlpha" type="matrix" values="0 0 0 0 0 0 0 0 0 0 0 0 0 0 0 0 0 0 127 0" result="hardAlpha"/>
<feOffset/>
<feGaussianBlur stdDeviation="1.37554"/>
<feComposite in2="hardAlpha" operator="arithmetic" k2="-1" k3="1"/>
<feColorMatrix type="matrix" values="0 0 0 0 1 0 0 0 0 1 0 0 0 0 1 0 0 0 0.5 0"/>
<feBlend mode="normal" in2="shape" result="effect1_innerShadow_1023_30892"/>
</filter>
<linearGradient id="paint0_linear_1023_30892" x1="120.496" y1="410.151" x2="1012.83" y2="846.733" gradientUnits="userSpaceOnUse">
<stop stop-color="#51E1C8"/>
<stop offset="1" stop-color="#26F7DD" stop-opacity="0.1"/>
</linearGradient>
<radialGradient id="paint1_radial_1023_30892" cx="0" cy="0" r="1" gradientUnits="userSpaceOnUse" gradientTransform="translate(61.4471 33.9527) rotate(91.1114) scale(285.879 27.0204)">
<stop stop-color="#D9D9D9"/>
<stop offset="1" stop-opacity="0"/>
</radialGradient>
<radialGradient id="paint2_radial_1023_30892" cx="0" cy="0" r="1" gradientUnits="userSpaceOnUse" gradientTransform="translate(61.4471 47.3473) rotate(90.7971) scale(398.624 27.0228)">
<stop stop-color="#D9D9D9"/>
<stop offset="1" stop-opacity="0"/>
</radialGradient>
<radialGradient id="paint3_radial_1023_30892" cx="0" cy="0" r="1" gradientUnits="userSpaceOnUse" gradientTransform="translate(61.4471 33.9527) rotate(91.1114) scale(285.879 27.0204)">
<stop stop-color="#D9D9D9"/>
<stop offset="1" stop-opacity="0"/>
</radialGradient>
<radialGradient id="paint4_radial_1023_30892" cx="0" cy="0" r="1" gradientUnits="userSpaceOnUse" gradientTransform="translate(61.4471 33.9526) rotate(94.1745) scale(352.797 33.8626)">
<stop stop-color="#D9D9D9"/>
<stop offset="1" stop-opacity="0"/>
</radialGradient>
<linearGradient id="paint5_linear_1023_30892" x1="317.88" y1="161.391" x2="249.621" y2="125.655" gradientUnits="userSpaceOnUse">
<stop stop-color="white"/>
<stop offset="1" stop-color="white" stop-opacity="0.5"/>
</linearGradient>
<linearGradient id="paint6_linear_1023_30892" x1="402.804" y1="20.7061" x2="187.052" y2="33.4204" gradientUnits="userSpaceOnUse">
<stop stop-color="#D4F7F1"/>
<stop offset="0.221154" stop-color="#D4F7F1" stop-opacity="0.778846"/>
<stop offset="1" stop-color="#D4F7F1" stop-opacity="0"/>
</linearGradient>
<linearGradient id="paint7_linear_1023_30892" x1="429.176" y1="-19.0567" x2="158.157" y2="-3.08554" gradientUnits="userSpaceOnUse">
<stop stop-color="#D4F7F1"/>
<stop offset="0.221154" stop-color="#D4F7F1" stop-opacity="0.778846"/>
<stop offset="1" stop-color="#D4F7F1" stop-opacity="0"/>
</linearGradient>
<linearGradient id="paint8_linear_1023_30892" x1="351.285" y1="355.557" x2="286.583" y2="66.5365" gradientUnits="userSpaceOnUse">
<stop stop-color="#D4F7F1"/>
<stop offset="0.221154" stop-color="#D4F7F1" stop-opacity="0.778846"/>
<stop offset="1" stop-color="#D4F7F1" stop-opacity="0"/>
</linearGradient>
<linearGradient id="paint9_linear_1023_30892" x1="369.494" y1="395.501" x2="288.641" y2="34.332" gradientUnits="userSpaceOnUse">
<stop stop-color="#D4F7F1"/>
<stop offset="0.221154" stop-color="#D4F7F1" stop-opacity="0.778846"/>
<stop offset="1" stop-color="#D4F7F1" stop-opacity="0"/>
</linearGradient>
<linearGradient id="paint10_linear_1023_30892" x1="424.889" y1="1263.56" x2="437.717" y2="-73.7115" gradientUnits="userSpaceOnUse">
<stop stop-color="#D4F7F1"/>
<stop offset="0.221154" stop-color="#D4F7F1" stop-opacity="0.778846"/>
<stop offset="1" stop-color="#D4F7F1" stop-opacity="0"/>
</linearGradient>
<linearGradient id="paint11_linear_1023_30892" x1="253.998" y1="175.5" x2="229.951" y2="148.595" gradientUnits="userSpaceOnUse">
<stop stop-color="#1DAA91" stop-opacity="0"/>
<stop offset="1" stop-color="#1DAA91" stop-opacity="0.6"/>
</linearGradient>
<linearGradient id="paint12_linear_1023_30892" x1="264.82" y1="156.048" x2="250.218" y2="149.212" gradientUnits="userSpaceOnUse">
<stop stop-color="#1DAA91" stop-opacity="0"/>
<stop offset="1" stop-color="#1DAA91" stop-opacity="0.6"/>
</linearGradient>
<linearGradient id="paint13_linear_1023_30892" x1="292" y1="167.5" x2="279.239" y2="153.285" gradientUnits="userSpaceOnUse">
<stop stop-color="#1DAA91" stop-opacity="0"/>
<stop offset="1" stop-color="#1DAA91" stop-opacity="0.6"/>
</linearGradient>
<linearGradient id="paint14_linear_1023_30892" x1="252.5" y1="191.5" x2="239.282" y2="174.777" gradientUnits="userSpaceOnUse">
<stop stop-color="#1DAA91" stop-opacity="0"/>
<stop offset="1" stop-color="#1DAA91" stop-opacity="0.6"/>
</linearGradient>
<linearGradient id="paint15_linear_1023_30892" x1="471.034" y1="2269.12" x2="495.226" y2="-252.882" gradientUnits="userSpaceOnUse">
<stop stop-color="#D4F7F1"/>
<stop offset="0.221154" stop-color="#D4F7F1" stop-opacity="0.778846"/>
<stop offset="1" stop-color="#D4F7F1" stop-opacity="0"/>
</linearGradient>
<clipPath id="clip0_1023_30892">
<rect width="370.37" height="251" fill="white"/>
</clipPath>
</defs>
</svg>
