<?xml version="1.0" encoding="UTF-8" standalone="no"?>
<svg width="249px" height="99px" viewBox="0 0 249 99" version="1.1" xmlns="http://www.w3.org/2000/svg" xmlns:xlink="http://www.w3.org/1999/xlink" xmlns:sketch="http://www.bohemiancoding.com/sketch/ns">
	<g id="Page-1" stroke="none" stroke-width="1" fill="none" fill-rule="evenodd" sketch:type="MSPage">
		<g id="Background-+-Logo" sketch:type="MSLayerGroup" transform="translate(-26.000000, -51.000000)">
			<g id="Logo" transform="translate(26.000000, 51.000000)" sketch:type="MSShapeGroup">
				<path d="M44.22,50.38 L22.02,75.52 L0,50.26 L0,94 L12.72,94 L12.72,82.48 L21.96,95.14 L31.5,82.36 L31.5,94 L44.22,94 L44.22,50.38 Z M83.46,57.94 C79.2,53.62 74.04,51.46 67.98,51.46 C61.92,51.46 56.76,53.62 52.44,57.94 C48.18,62.2 46.02,67.36 46.02,73.42 C46.02,79.48 48.18,84.64 52.44,88.96 C56.76,93.22 61.92,95.38 67.98,95.38 C74.04,95.38 79.2,93.22 83.46,88.96 C87.78,84.64 89.94,79.48 89.94,73.42 C89.94,67.36 87.78,62.2 83.46,57.94 Z M132.48,52.9 L119.7,52.9 L119.7,72.64 L91.14,50.08 L91.14,94 L103.92,94 L103.92,76.36 L132.48,98.98 L132.48,52.9 Z M159.4,73.18 L172,60.58 L163,51.58 L148.06,66.52 L148.06,52.9 L135.34,52.9 L135.34,94 L148.06,94 L148.06,79.9 L163,94.84 L172,85.84 L159.4,73.18 Z M186.92,79.9 L204.26,79.9 L204.26,67.12 L186.92,67.12 L186.92,65.74 L204.26,65.74 L204.26,52.96 L174.08,52.96 L174.08,94 L204.26,94 L204.26,81.28 L186.92,81.28 L186.92,79.9 Z M233.56,52.9 L227.26,63.82 L220.96,52.9 L206.26,52.9 L220.9,78.34 L220.9,94 L233.62,94 L233.62,78.34 L248.26,52.9 L233.56,52.9 Z" id="MONKEY" fill="#D4F7F1">
				</path>
				<path d="M12.72,2.9 L0,2.9 L0,44 L12.72,44 L12.72,2.9 Z M56.86,2.9 L44.08,2.9 L44.08,22.64 L15.52,0.08 L15.52,44 L28.3,44 L28.3,26.36 L56.86,48.98 L56.86,2.9 Z M88.94,27.74 C88.94,22.88 87.2,18.74 83.72,15.26 C83.36,14.84 82.94,14.48 82.46,14.12 L82.46,2.9 L71.24,2.9 C65.72,2.9 61.28,7.34 61.28,12.86 C61.28,15.5 63.2,20.48 69.56,21.56 C75.86,22.7 76.1,26.06 76.1,27.74 C76.1,29.06 75.62,30.2 74.72,31.16 C73.76,32.12 72.62,32.6 71.24,32.6 C69.92,32.6 68.78,32.12 67.82,31.16 L58.76,40.22 C62.24,43.7 66.38,45.44 71.24,45.44 C76.16,45.44 80.3,43.7 83.78,40.22 C85.88,38.06 87.38,35.66 88.16,32.96 C88.7,31.28 88.94,29.54 88.94,27.74 L88.94,27.74 Z M103.86,2.9 L91.14,2.9 L91.14,44 L103.86,44 L103.86,2.9 Z M143.92,23.48 C143.92,17.84 141.88,13.04 137.86,9.02 C133.84,5 129.04,2.96 123.4,2.96 L106.66,2.96 L106.66,44 L123.4,44 C129.04,44 133.84,42.02 137.86,38 C141.88,33.98 143.92,29.12 143.92,23.48 L143.92,23.48 Z M159.56,29.9 L176.9,29.9 L176.9,17.12 L159.56,17.12 L159.56,15.74 L176.9,15.74 L176.9,2.96 L146.72,2.96 L146.72,44 L176.9,44 L176.9,31.28 L159.56,31.28 L159.56,29.9 Z M211.74,45.62 L220.5,31.04 C219.06,31.7 215.22,32.84 212.46,32.84 C214.02,31.22 215.28,29.42 216.18,27.32 C217.08,25.16 217.56,22.94 217.56,20.54 C217.56,15.62 215.82,11.48 212.4,8.06 C208.92,4.64 204.78,2.9 199.92,2.9 L179.7,2.78 L179.7,44 L192.42,44 L192.42,38.12 L192.54,38.12 C194.28,39.74 196.08,41.06 198.12,42.2 C200.1,43.28 202.2,44.12 204.36,44.6 C205.14,44.84 205.98,45.08 206.76,45.2 C207.6,45.32 208.44,45.44 209.28,45.44 C209.7,45.5 210.06,45.56 210.48,45.56 C210.9,45.56 211.32,45.62 211.74,45.62 L211.74,45.62 Z" id="INSIDER" fill="#D4F7F1">
				</path>
				<circle id="Oval-1" fill="#191919" cx="207" cy="21" r="4">
				</circle>
				<circle id="Oval-2" fill="#191919" cx="135" cy="21" r="4">
				</circle>
				<circle id="Oval-3" fill="#191919" cx="81" cy="73" r="4">
				</circle>
			</g>
		</g>
	</g>
</svg>
