<svg width="15" height="15" viewBox="0 0 15 15" fill="none" xmlns="http://www.w3.org/2000/svg">
<g id="Frame">
<path id="Union" d="M6.20427 1.82422C6.38562 1.82434 6.5231 1.98838 6.49138 2.16699L6.13786 4.15723H9.59294L9.96501 2.06445C9.98993 1.92548 10.1109 1.82422 10.2521 1.82422H10.8263C11.0076 1.82445 11.1451 1.98844 11.1135 2.16699L10.7599 4.15723H12.7463C12.9272 4.1574 13.0643 4.3208 13.0334 4.49902L12.9308 5.08301C12.9063 5.22242 12.7853 5.32422 12.6437 5.32422H10.5558L10.1652 7.53027C10.1799 7.59988 10.1853 7.67291 10.172 7.74805L9.98161 8.82422H11.9679C12.149 8.82422 12.2871 8.9876 12.256 9.16602L12.1535 9.74902C12.1291 9.88849 12.008 9.99111 11.8664 9.99121H9.77751L9.40642 12.084C9.38157 12.223 9.2606 12.3242 9.11931 12.3242H8.50017C8.31877 12.3241 8.18133 12.1601 8.21306 11.9814L8.56658 9.99121H5.1115L4.73943 12.084C4.71451 12.223 4.59357 12.3242 4.45232 12.3242H3.8781C3.69677 12.324 3.55929 12.16 3.59099 11.9814L3.9445 9.99121H1.95818C1.77724 9.99109 1.64017 9.82767 1.67107 9.64941L1.77361 9.06543C1.79813 8.92602 1.91911 8.82422 2.06072 8.82422H4.14861L4.53728 6.61719C4.52279 6.54797 4.51925 6.47506 4.5324 6.40039L4.72185 5.32422H2.7365C2.55539 5.32422 2.41729 5.16084 2.44841 4.98242L2.55095 4.39941C2.57533 4.25992 2.69642 4.15729 2.83806 4.15723H4.92693L5.29802 2.06445C5.32288 1.92544 5.44382 1.82422 5.58513 1.82422H6.20427ZM5.93376 5.32422L5.3156 8.82422H8.77068L9.38884 5.32422H5.93376Z" fill="#7289DA"/>
</g>
</svg>
