<svg width="358" height="168" viewBox="0 0 358 168" fill="none" xmlns="http://www.w3.org/2000/svg">
<g clip-path="url(#clip0_897_3959)">
<g clip-path="url(#clip1_897_3959)">
<mask id="mask0_897_3959" style="mask-type:alpha" maskUnits="userSpaceOnUse" x="-28" y="-39" width="511" height="296">
<path opacity="0.6" d="M61.0434 97.6883L61.1783 97.7662M61.1783 97.7662L92.062 115.597M61.1783 97.7662L31.7987 114.728M61.1783 97.7662L90.5578 80.8039M92.062 115.597L122.946 133.428M92.062 115.597L62.6825 132.559M92.062 115.597L121.442 98.6347M122.946 133.428L153.83 151.258M122.946 133.428L93.5662 150.39M122.946 133.428L152.325 116.465M153.83 151.258L184.713 169.089M153.83 151.258L124.45 168.221M153.83 151.258L183.209 134.296M184.713 169.089L215.597 186.92M184.713 169.089L155.334 186.051M184.713 169.089L214.093 152.127M215.597 186.92L246.481 204.751M215.597 186.92L186.217 203.882M215.597 186.92L244.977 169.958M246.481 204.751L217.101 221.713M246.481 204.751L275.86 187.788M31.6639 114.651L31.7987 114.728M31.7987 114.728L62.6825 132.559M31.7987 114.728L2.4192 131.691M62.6825 132.559L93.5662 150.39M62.6825 132.559L33.3029 149.522M93.5662 150.39L124.45 168.221M93.5662 150.39L64.1867 167.352M124.45 168.221L155.334 186.051M124.45 168.221L95.0704 185.183M155.334 186.051L186.217 203.882M155.334 186.051L125.954 203.014M186.217 203.882L217.101 221.713M186.217 203.882L156.838 220.844M217.101 221.713L187.722 238.675M149.182 46.8015L149.317 46.8793M149.317 46.8793L119.937 63.8416M149.317 46.8793L158.298 41.6944M2.28433 131.613L2.4192 131.691M2.4192 131.691L33.3029 149.522M2.4192 131.691L-26.9604 148.653M33.3029 149.522L64.1867 167.352M33.3029 149.522L3.92339 166.484M64.1867 167.352L95.0704 185.183M64.1867 167.352L34.8071 184.315M95.0704 185.183L125.954 203.014M95.0704 185.183L65.6909 202.145M125.954 203.014L156.838 220.844M125.954 203.014L96.5746 219.976M156.838 220.844L187.722 238.675M156.838 220.844L127.458 237.807M187.722 238.675L158.342 255.637L127.458 237.807M119.803 63.7638L119.937 63.8416M119.937 63.8416L150.821 81.6724M119.937 63.8416L90.5578 80.8039M150.821 81.6724L181.705 99.5031M150.821 81.6724L121.442 98.6347M150.821 81.6724L180.201 64.7101L189.181 59.5251M181.705 99.5031L212.589 117.334M181.705 99.5031L152.325 116.465M181.705 99.5031L211.084 82.5408L220.065 77.3558M212.589 117.334L243.472 135.165M212.589 117.334L183.209 134.296M212.589 117.334L241.968 100.372L250.949 95.1866M243.472 135.165L274.356 152.995M243.472 135.165L214.093 152.127M243.472 135.165L272.852 118.202L281.833 113.017M274.356 152.995L305.24 170.826M274.356 152.995L244.977 169.958M274.356 152.995L303.736 136.033L312.716 130.848M305.24 170.826L275.86 187.788M305.24 170.826L334.619 153.864L343.6 148.679M-27.0952 148.575L-26.9604 148.653M-26.9604 148.653L3.92339 166.484M3.92339 166.484L34.8071 184.315M34.8071 184.315L65.6909 202.145M65.6909 202.145L96.5746 219.976M96.5746 219.976L127.458 237.807M90.423 80.7261L90.5578 80.8039M90.5578 80.8039L121.442 98.6347M121.442 98.6347L152.325 116.465M152.325 116.465L183.209 134.296M183.209 134.296L214.093 152.127M214.093 152.127L244.977 169.958M244.977 169.958L275.86 187.788M237.851 -4.3915L237.986 -4.31363M237.986 -4.31363L268.869 13.5171M237.986 -4.31363L208.606 12.6487M237.986 -4.31363L267.365 -21.2759M268.869 13.5171L299.753 31.3478M268.869 13.5171L239.49 30.4794M268.869 13.5171L298.249 -3.44516M299.753 31.3478L330.637 49.1786M299.753 31.3478L270.374 48.3101M299.753 31.3478L329.133 14.3856M330.637 49.1786L361.521 67.0093M330.637 49.1786L301.257 66.1409M330.637 49.1786L360.016 32.2163M361.521 67.0093L392.404 84.8401M361.521 67.0093L332.141 83.9716M361.521 67.0093L390.9 50.0471M392.404 84.8401L423.288 102.671M392.404 84.8401L363.025 101.802M392.404 84.8401L421.784 67.8778M423.288 102.671L393.909 119.633M423.288 102.671L452.668 85.7085M208.471 12.5708L208.606 12.6487M208.606 12.6487L239.49 30.4794M208.606 12.6487L179.227 29.611M239.49 30.4794L270.374 48.3101M239.49 30.4794L210.11 47.4417M270.374 48.3101L301.257 66.1409M270.374 48.3101L240.994 65.2724M301.257 66.1409L332.141 83.9716M301.257 66.1409L271.878 83.1032M332.141 83.9716L363.025 101.802M332.141 83.9716L302.762 100.934M363.025 101.802L393.909 119.633M363.025 101.802L333.645 118.765M393.909 119.633L364.529 136.595M179.092 29.5331L179.227 29.611M179.227 29.611L210.11 47.4417M179.227 29.611L149.847 46.5732M210.11 47.4417L240.994 65.2724M210.11 47.4417L180.731 64.404M240.994 65.2724L271.878 83.1032M240.994 65.2724L211.615 82.2347M271.878 83.1032L302.762 100.934M271.878 83.1032L242.498 100.065M302.762 100.934L333.645 118.765M302.762 100.934L273.382 117.896M333.645 118.765L364.529 136.595M333.645 118.765L304.266 135.727M364.529 136.595L335.15 153.558M296.61 -38.3161L296.745 -38.2382M296.745 -38.2382L327.629 -20.4075M296.745 -38.2382L267.365 -21.2759M327.629 -20.4075L358.512 -2.57672M327.629 -20.4075L298.249 -3.44516M358.512 -2.57672L389.396 15.254M358.512 -2.57672L329.133 14.3856M389.396 15.254L420.28 33.0848M389.396 15.254L360.016 32.2163M420.28 33.0848L451.164 50.9155M420.28 33.0848L390.9 50.0471M451.164 50.9155L482.047 68.7462L452.668 85.7085M451.164 50.9155L421.784 67.8778M149.712 46.4954L149.847 46.5732M149.847 46.5732L180.731 64.404M149.847 46.5732L140.866 51.7582M180.731 64.404L211.615 82.2347M180.731 64.404L171.75 69.589M211.615 82.2347L242.498 100.065M211.615 82.2347L202.634 87.4197M242.498 100.065L273.382 117.896M242.498 100.065L233.518 105.25M273.382 117.896L304.266 135.727M273.382 117.896L264.401 123.081M304.266 135.727L335.15 153.558M304.266 135.727L295.285 140.912M335.15 153.558L326.169 158.743M267.23 -21.3538L267.365 -21.2759M267.365 -21.2759L298.249 -3.44516M298.249 -3.44516L329.133 14.3856M329.133 14.3856L360.016 32.2163M360.016 32.2163L390.9 50.0471M390.9 50.0471L421.784 67.8778M421.784 67.8778L452.668 85.7085" stroke="#D4F7F1" stroke-width="0.759307"/>
</mask>
<g mask="url(#mask0_897_3959)">
<g style="mix-blend-mode:screen" filter="url(#filter0_f_897_3959)">
<ellipse cx="56.2763" cy="51.701" rx="56.2763" ry="51.701" transform="matrix(0.866025 -0.5 0.866025 0.5 67.7185 131.337)" fill="#1DAA91" fill-opacity="0.6"/>
</g>
<g style="mix-blend-mode:screen" filter="url(#filter1_f_897_3959)">
<ellipse cx="57.6489" cy="51.701" rx="57.6489" ry="51.701" transform="matrix(0.866025 -0.5 0.866025 0.5 224.627 70.0281)" fill="#1DAA91" fill-opacity="0.6"/>
</g>
</g>
<path d="M286.836 91.3037L305.301 101.965C308.233 103.657 312.986 103.657 315.918 101.965L335.019 90.9372C337.95 89.2445 342.704 89.2445 345.636 90.9372L379.554 110.52" stroke="url(#paint0_linear_897_3959)" stroke-width="0.915062"/>
<rect x="0.531886" width="32.3281" height="32.3281" rx="7.01341" transform="matrix(0.866025 -0.5 0.866025 0.5 28.9586 127.486)" fill="#1DAA91" fill-opacity="0.15" stroke="url(#paint1_linear_897_3959)" stroke-width="0.614169"/>
<rect x="0.531886" width="32.3281" height="32.3281" rx="7.01341" transform="matrix(0.866025 -0.5 0.866025 0.5 90.7711 163.173)" fill="#1DAA91" fill-opacity="0.15" stroke="url(#paint2_linear_897_3959)" stroke-width="0.614169"/>
<path d="M56.6238 127.22L81.0326 141.312C83.9645 143.005 88.7181 143.005 91.65 141.312L133.097 117.383" stroke="url(#paint3_linear_897_3959)" stroke-width="0.915062"/>
<g filter="url(#filter2_d_897_3959)">
<circle cx="2.28766" cy="2.28766" r="2.28766" transform="matrix(0.866025 -0.5 0.866025 0.5 52.6615 127.22)" fill="#C8FED4" fill-opacity="0.88" shape-rendering="crispEdges"/>
</g>
<g filter="url(#filter3_d_897_3959)">
<circle cx="2.28766" cy="2.28766" r="2.28766" transform="matrix(0.866025 -0.5 0.866025 0.5 114.474 162.907)" fill="#C8FED4" fill-opacity="0.88" shape-rendering="crispEdges"/>
</g>
<path d="M118.436 162.907L94.0274 148.815C91.0955 147.122 91.0955 144.378 94.0274 142.685L135.474 118.755" stroke="url(#paint4_linear_897_3959)" stroke-width="0.915062"/>
<g filter="url(#filter4_d_897_3959)">
<rect width="3.66025" height="8.23556" rx="0.915062" transform="matrix(0.866025 -0.5 0.866025 0.5 128.738 117.154)" fill="#C8FED4"/>
</g>
<g filter="url(#filter5_d_897_3959)">
<g clip-path="url(#clip2_897_3959)">
<rect width="165.626" height="108.892" rx="4.59748" transform="matrix(0.866025 -0.5 0.866025 0.5 93.8697 94.2776)" fill="white" fill-opacity="0.05" shape-rendering="crispEdges"/>
<g filter="url(#filter6_f_897_3959)">
<rect width="135.429" height="67.7146" transform="matrix(-0.866026 0.5 -0.866025 -0.5 288.024 64.5381)" fill="url(#paint5_linear_897_3959)"/>
</g>
<g filter="url(#filter7_d_897_3959)">
<rect width="0.915067" height="101.572" rx="0.457533" transform="matrix(0.866025 0.5 -0.866026 0.5 225.419 51.2695)" fill="#C8FED4"/>
</g>
<g filter="url(#filter8_d_897_3959)">
<rect width="0.915064" height="42.0929" rx="0.457532" transform="matrix(0.866025 0.5 -0.866026 0.5 273.76 48.9819)" fill="#C8FED4"/>
</g>
<g filter="url(#filter9_d_897_3959)">
<rect width="0.915065" height="51.2435" rx="0.457532" transform="matrix(0.866025 0.5 -0.866026 0.5 219.08 97.9377)" fill="#C8FED4"/>
</g>
</g>
<rect x="0.792467" width="164.711" height="107.977" rx="4.13995" transform="matrix(0.866025 -0.5 0.866025 0.5 93.9759 94.6738)" stroke="url(#paint6_linear_897_3959)" stroke-width="0.915062" shape-rendering="crispEdges"/>
</g>
<path d="M43.4534 119.179L11.1967 100.556C8.26483 98.8628 3.51124 98.8628 0.579324 100.556L-139.908 181.666" stroke="url(#paint7_linear_897_3959)" stroke-width="0.915062"/>
<g style="mix-blend-mode:lighten" filter="url(#filter10_f_897_3959)">
<ellipse cx="74.12" cy="46.2106" rx="74.12" ry="46.2106" transform="matrix(0.866025 -0.5 0.866025 0.5 85.9451 127.22)" fill="#1DAA91" fill-opacity="0.6"/>
</g>
</g>
<path d="M238.037 -82.3067V70.6933L274.537 49.5V-93L238.037 -82.3067Z" fill="url(#paint8_linear_897_3959)" style="mix-blend-mode:screen"/>
<path d="M225.574 -100.519V52.4814L138.074 102.481V-51.0186L225.574 -100.519Z" fill="url(#paint9_linear_897_3959)" style="mix-blend-mode:screen"/>
<path d="M175.074 -29.1798V123.82L219.574 97.9814V-44.5186L175.074 -29.1798Z" fill="url(#paint10_linear_897_3959)" style="mix-blend-mode:screen"/>
<g style="mix-blend-mode:screen" filter="url(#filter11_d_897_3959)">
<path d="M178.574 113.981C178.741 108.981 179.974 98.9814 183.574 98.9814C188.074 98.9814 187.574 106.981 191.074 106.981C194.574 106.981 193.574 84.4814 199.074 83.4814C204.574 82.4814 207.074 85.4814 210.574 82.4814C214.074 79.4814 213.074 70.4814 216.574 69.4814" stroke="#1DAA91" stroke-linecap="round"/>
</g>
<g clip-path="url(#clip3_897_3959)">
<g filter="url(#filter12_d_897_3959)">
<path d="M153.464 68.3733L152.174 69.118L152.174 67.6658L151.552 68.0253L151.552 69.4775L150.262 70.2222L150.262 98.1709L151.552 97.4263L151.552 97.9685L152.174 97.609L152.174 97.0667L153.464 96.3221L153.464 68.3733Z" fill="#1DAA91"/>
</g>
<g filter="url(#filter13_d_897_3959)">
<path d="M158.35 64.6714L157.096 65.3955L157.096 63.3411L156.49 63.6907L156.49 65.7451L155.236 66.4692L155.236 72.8659L156.49 72.1418L156.49 77.239L157.096 76.8893L157.096 71.7922L158.35 71.0681L158.35 64.6714Z" fill="#1DAA91"/>
</g>
<g filter="url(#filter14_d_897_3959)">
<path d="M162.005 62.561L162.005 57.3355L161.4 57.6851L161.4 62.9106L160.146 63.6347L160.146 68.977L163.26 67.1792L163.26 61.8369L162.005 62.561Z" fill="#1DAA91"/>
</g>
<g filter="url(#filter15_d_897_3959)">
<path d="M166.268 64.3141L166.268 62.2324L165.66 62.5834L165.66 64.665L164.408 65.3878L164.408 76.9088L167.519 75.1124L167.519 63.5913L166.268 64.3141Z" fill="#1DAA91"/>
</g>
<g filter="url(#filter16_d_897_3959)">
<path d="M172.372 71.2955L171.118 72.0196L171.118 47.9619L170.51 48.3129L170.51 72.3705L169.258 73.0933L169.258 77.2021L170.51 76.4793L170.51 83.802L171.118 83.4511L171.118 76.1284L172.372 75.4043L172.372 71.2955Z" fill="#1DAA91"/>
</g>
<g filter="url(#filter17_d_897_3959)">
<path d="M177.341 44.3689L176.087 45.093L176.087 33.4707L175.481 33.8203L175.481 45.4425L174.227 46.1666L174.227 74.3331L175.481 73.609L175.481 78.9513L176.087 78.6017L176.087 73.2594L177.341 72.5353L177.341 44.3689Z" fill="#1DAA91"/>
</g>
<g filter="url(#filter18_d_897_3959)">
<path d="M182.134 26.5789L180.955 27.2598L180.955 19.19L180.347 19.5409L180.347 27.6107L179.02 28.3767L179.02 44.3139L180.347 43.5479L180.347 48.8902L180.955 48.5393L180.955 43.197L182.134 42.5161L182.134 26.5789Z" fill="#1DAA91"/>
</g>
<g filter="url(#filter19_d_897_3959)">
<path d="M187.073 23.9801L185.819 24.7042L185.819 23.7354L185.213 24.085L185.213 25.0539L183.959 25.778L183.959 28.9257L185.213 28.2016L185.213 35.5594L185.819 35.2098L185.819 27.852L187.073 27.1279L187.073 23.9801Z" fill="#1DAA91"/>
</g>
<g filter="url(#filter20_d_897_3959)">
<path d="M191.954 23.2438L190.702 23.9666L190.702 19.6904L190.094 20.0414L190.094 24.3175L188.842 25.0403L188.842 31.437L190.094 30.7142L190.094 36.8619L190.702 36.5109L190.702 30.3632L191.954 29.6405L191.954 23.2438Z" fill="#1DAA91"/>
</g>
<g filter="url(#filter21_d_897_3959)">
<path d="M196.837 25.6539L195.612 26.361L195.612 25.2638L195.004 25.6147L195.004 26.7119L193.723 27.4517L193.723 33.8445L195.004 33.1047L195.004 37.2291L195.612 36.8782L195.612 32.7538L196.837 32.0467L196.837 25.6539Z" fill="#1DAA91"/>
</g>
<g filter="url(#filter22_d_897_3959)">
<path d="M200.522 6.67453L200.522 1.57352L199.917 1.92312L199.917 7.02412L198.663 7.74822L198.663 30.9927L201.777 29.1949L201.777 5.95043L200.522 6.67453Z" fill="#1DAA91"/>
</g>
</g>
</g>
<defs>
<filter id="filter0_f_897_3959" x="54.9307" y="50.7225" width="212.598" height="156.654" filterUnits="userSpaceOnUse" color-interpolation-filters="sRGB">
<feFlood flood-opacity="0" result="BackgroundImageFix"/>
<feBlend mode="normal" in="SourceGraphic" in2="BackgroundImageFix" result="shape"/>
<feGaussianBlur stdDeviation="20.0584" result="effect1_foregroundBlur_897_3959"/>
</filter>
<filter id="filter1_f_897_3959" x="212.148" y="-11.7812" width="214.359" height="157.671" filterUnits="userSpaceOnUse" color-interpolation-filters="sRGB">
<feFlood flood-opacity="0" result="BackgroundImageFix"/>
<feBlend mode="normal" in="SourceGraphic" in2="BackgroundImageFix" result="shape"/>
<feGaussianBlur stdDeviation="20.0584" result="effect1_foregroundBlur_897_3959"/>
</filter>
<filter id="filter2_d_897_3959" x="51.3652" y="123.145" width="10.5172" height="8.14893" filterUnits="userSpaceOnUse" color-interpolation-filters="sRGB">
<feFlood flood-opacity="0" result="BackgroundImageFix"/>
<feColorMatrix in="SourceAlpha" type="matrix" values="0 0 0 0 0 0 0 0 0 0 0 0 0 0 0 0 0 0 127 0" result="hardAlpha"/>
<feOffset/>
<feGaussianBlur stdDeviation="1.22839"/>
<feComposite in2="hardAlpha" operator="out"/>
<feColorMatrix type="matrix" values="0 0 0 0 0.784314 0 0 0 0 0.996078 0 0 0 0 0.831373 0 0 0 1 0"/>
<feBlend mode="normal" in2="BackgroundImageFix" result="effect1_dropShadow_897_3959"/>
<feBlend mode="normal" in="SourceGraphic" in2="effect1_dropShadow_897_3959" result="shape"/>
</filter>
<filter id="filter3_d_897_3959" x="113.177" y="158.833" width="10.5172" height="8.14893" filterUnits="userSpaceOnUse" color-interpolation-filters="sRGB">
<feFlood flood-opacity="0" result="BackgroundImageFix"/>
<feColorMatrix in="SourceAlpha" type="matrix" values="0 0 0 0 0 0 0 0 0 0 0 0 0 0 0 0 0 0 127 0" result="hardAlpha"/>
<feOffset/>
<feGaussianBlur stdDeviation="1.22839"/>
<feComposite in2="hardAlpha" operator="out"/>
<feColorMatrix type="matrix" values="0 0 0 0 0.784314 0 0 0 0 0.996078 0 0 0 0 0.831373 0 0 0 1 0"/>
<feBlend mode="normal" in2="BackgroundImageFix" result="effect1_dropShadow_897_3959"/>
<feBlend mode="normal" in="SourceGraphic" in2="effect1_dropShadow_897_3959" result="shape"/>
</filter>
<filter id="filter4_d_897_3959" x="126.746" y="113.135" width="14.2872" height="10.3254" filterUnits="userSpaceOnUse" color-interpolation-filters="sRGB">
<feFlood flood-opacity="0" result="BackgroundImageFix"/>
<feColorMatrix in="SourceAlpha" type="matrix" values="0 0 0 0 0 0 0 0 0 0 0 0 0 0 0 0 0 0 127 0" result="hardAlpha"/>
<feOffset/>
<feGaussianBlur stdDeviation="1.22839"/>
<feComposite in2="hardAlpha" operator="out"/>
<feColorMatrix type="matrix" values="0 0 0 0 0.784314 0 0 0 0 0.996078 0 0 0 0 0.831373 0 0 0 1 0"/>
<feBlend mode="normal" in2="BackgroundImageFix" result="effect1_dropShadow_897_3959"/>
<feBlend mode="normal" in="SourceGraphic" in2="effect1_dropShadow_897_3959" result="shape"/>
</filter>
<filter id="filter5_d_897_3959" x="77.8552" y="-4.55018" width="269.769" height="169.289" filterUnits="userSpaceOnUse" color-interpolation-filters="sRGB">
<feFlood flood-opacity="0" result="BackgroundImageFix"/>
<feColorMatrix in="SourceAlpha" type="matrix" values="0 0 0 0 0 0 0 0 0 0 0 0 0 0 0 0 0 0 127 0" result="hardAlpha"/>
<feOffset dx="-2.29874" dy="3.83123"/>
<feGaussianBlur stdDeviation="2.10718"/>
<feComposite in2="hardAlpha" operator="out"/>
<feColorMatrix type="matrix" values="0 0 0 0 0 0 0 0 0 0 0 0 0 0 0 0 0 0 0.25 0"/>
<feBlend mode="normal" in2="BackgroundImageFix" result="effect1_dropShadow_897_3959"/>
<feBlend mode="normal" in="SourceGraphic" in2="effect1_dropShadow_897_3959" result="shape"/>
</filter>
<filter id="filter6_f_897_3959" x="-12.2796" y="-93.6955" width="424.68" height="350.324" filterUnits="userSpaceOnUse" color-interpolation-filters="sRGB">
<feFlood flood-opacity="0" result="BackgroundImageFix"/>
<feBlend mode="normal" in="SourceGraphic" in2="BackgroundImageFix" result="shape"/>
<feGaussianBlur stdDeviation="62.1881" result="effect1_foregroundBlur_897_3959"/>
</filter>
<filter id="filter7_d_897_3959" x="135.231" y="48.9468" width="93.2057" height="55.8889" filterUnits="userSpaceOnUse" color-interpolation-filters="sRGB">
<feFlood flood-opacity="0" result="BackgroundImageFix"/>
<feColorMatrix in="SourceAlpha" type="matrix" values="0 0 0 0 0 0 0 0 0 0 0 0 0 0 0 0 0 0 127 0" result="hardAlpha"/>
<feOffset/>
<feGaussianBlur stdDeviation="1.22839"/>
<feComposite in2="hardAlpha" operator="out"/>
<feColorMatrix type="matrix" values="0 0 0 0 0.784314 0 0 0 0 0.996078 0 0 0 0 0.831373 0 0 0 1 0"/>
<feBlend mode="normal" in2="BackgroundImageFix" result="effect1_dropShadow_897_3959"/>
<feBlend mode="normal" in="SourceGraphic" in2="effect1_dropShadow_897_3959" result="shape"/>
</filter>
<filter id="filter8_d_897_3959" x="235.082" y="46.6592" width="41.6953" height="26.1494" filterUnits="userSpaceOnUse" color-interpolation-filters="sRGB">
<feFlood flood-opacity="0" result="BackgroundImageFix"/>
<feColorMatrix in="SourceAlpha" type="matrix" values="0 0 0 0 0 0 0 0 0 0 0 0 0 0 0 0 0 0 127 0" result="hardAlpha"/>
<feOffset/>
<feGaussianBlur stdDeviation="1.22839"/>
<feComposite in2="hardAlpha" operator="out"/>
<feColorMatrix type="matrix" values="0 0 0 0 0.784314 0 0 0 0 0.996078 0 0 0 0 0.831373 0 0 0 1 0"/>
<feBlend mode="normal" in2="BackgroundImageFix" result="effect1_dropShadow_897_3959"/>
<feBlend mode="normal" in="SourceGraphic" in2="effect1_dropShadow_897_3959" result="shape"/>
</filter>
<filter id="filter9_d_897_3959" x="172.477" y="95.615" width="49.62" height="30.7249" filterUnits="userSpaceOnUse" color-interpolation-filters="sRGB">
<feFlood flood-opacity="0" result="BackgroundImageFix"/>
<feColorMatrix in="SourceAlpha" type="matrix" values="0 0 0 0 0 0 0 0 0 0 0 0 0 0 0 0 0 0 127 0" result="hardAlpha"/>
<feOffset/>
<feGaussianBlur stdDeviation="1.22839"/>
<feComposite in2="hardAlpha" operator="out"/>
<feColorMatrix type="matrix" values="0 0 0 0 0.784314 0 0 0 0 0.996078 0 0 0 0 0.831373 0 0 0 1 0"/>
<feBlend mode="normal" in2="BackgroundImageFix" result="effect1_dropShadow_897_3959"/>
<feBlend mode="normal" in="SourceGraphic" in2="effect1_dropShadow_897_3959" result="shape"/>
</filter>
<filter id="filter10_f_897_3959" x="74.3842" y="29.4696" width="231.541" height="167.591" filterUnits="userSpaceOnUse" color-interpolation-filters="sRGB">
<feFlood flood-opacity="0" result="BackgroundImageFix"/>
<feBlend mode="normal" in="SourceGraphic" in2="BackgroundImageFix" result="shape"/>
<feGaussianBlur stdDeviation="20.0584" result="effect1_foregroundBlur_897_3959"/>
</filter>
<filter id="filter11_d_897_3959" x="176.174" y="67.0812" width="42.8001" height="49.3002" filterUnits="userSpaceOnUse" color-interpolation-filters="sRGB">
<feFlood flood-opacity="0" result="BackgroundImageFix"/>
<feColorMatrix in="SourceAlpha" type="matrix" values="0 0 0 0 0 0 0 0 0 0 0 0 0 0 0 0 0 0 127 0" result="hardAlpha"/>
<feOffset/>
<feGaussianBlur stdDeviation="0.95"/>
<feComposite in2="hardAlpha" operator="out"/>
<feColorMatrix type="matrix" values="0 0 0 0 0.113725 0 0 0 0 0.666667 0 0 0 0 0.568627 0 0 0 1 0"/>
<feBlend mode="normal" in2="BackgroundImageFix" result="effect1_dropShadow_897_3959"/>
<feBlend mode="normal" in="SourceGraphic" in2="effect1_dropShadow_897_3959" result="shape"/>
</filter>
<filter id="filter12_d_897_3959" x="149.302" y="66.7059" width="5.12202" height="32.4248" filterUnits="userSpaceOnUse" color-interpolation-filters="sRGB">
<feFlood flood-opacity="0" result="BackgroundImageFix"/>
<feColorMatrix in="SourceAlpha" type="matrix" values="0 0 0 0 0 0 0 0 0 0 0 0 0 0 0 0 0 0 127 0" result="hardAlpha"/>
<feOffset/>
<feGaussianBlur stdDeviation="0.479922"/>
<feComposite in2="hardAlpha" operator="out"/>
<feColorMatrix type="matrix" values="0 0 0 0 0.113725 0 0 0 0 0.666667 0 0 0 0 0.568627 0 0 0 1 0"/>
<feBlend mode="normal" in2="BackgroundImageFix" result="effect1_dropShadow_897_3959"/>
<feBlend mode="normal" in="SourceGraphic" in2="effect1_dropShadow_897_3959" result="shape"/>
</filter>
<filter id="filter13_d_897_3959" x="154.276" y="62.3812" width="5.03358" height="15.8176" filterUnits="userSpaceOnUse" color-interpolation-filters="sRGB">
<feFlood flood-opacity="0" result="BackgroundImageFix"/>
<feColorMatrix in="SourceAlpha" type="matrix" values="0 0 0 0 0 0 0 0 0 0 0 0 0 0 0 0 0 0 127 0" result="hardAlpha"/>
<feOffset/>
<feGaussianBlur stdDeviation="0.479922"/>
<feComposite in2="hardAlpha" operator="out"/>
<feColorMatrix type="matrix" values="0 0 0 0 0.113725 0 0 0 0 0.666667 0 0 0 0 0.568627 0 0 0 1 0"/>
<feBlend mode="normal" in2="BackgroundImageFix" result="effect1_dropShadow_897_3959"/>
<feBlend mode="normal" in="SourceGraphic" in2="effect1_dropShadow_897_3959" result="shape"/>
</filter>
<filter id="filter14_d_897_3959" x="159.186" y="56.3756" width="5.03358" height="13.5613" filterUnits="userSpaceOnUse" color-interpolation-filters="sRGB">
<feFlood flood-opacity="0" result="BackgroundImageFix"/>
<feColorMatrix in="SourceAlpha" type="matrix" values="0 0 0 0 0 0 0 0 0 0 0 0 0 0 0 0 0 0 127 0" result="hardAlpha"/>
<feOffset/>
<feGaussianBlur stdDeviation="0.479922"/>
<feComposite in2="hardAlpha" operator="out"/>
<feColorMatrix type="matrix" values="0 0 0 0 0.113725 0 0 0 0 0.666667 0 0 0 0 0.568627 0 0 0 1 0"/>
<feBlend mode="normal" in2="BackgroundImageFix" result="effect1_dropShadow_897_3959"/>
<feBlend mode="normal" in="SourceGraphic" in2="effect1_dropShadow_897_3959" result="shape"/>
</filter>
<filter id="filter15_d_897_3959" x="163.448" y="61.2726" width="5.03126" height="16.5962" filterUnits="userSpaceOnUse" color-interpolation-filters="sRGB">
<feFlood flood-opacity="0" result="BackgroundImageFix"/>
<feColorMatrix in="SourceAlpha" type="matrix" values="0 0 0 0 0 0 0 0 0 0 0 0 0 0 0 0 0 0 127 0" result="hardAlpha"/>
<feOffset/>
<feGaussianBlur stdDeviation="0.479922"/>
<feComposite in2="hardAlpha" operator="out"/>
<feColorMatrix type="matrix" values="0 0 0 0 0.113725 0 0 0 0 0.666667 0 0 0 0 0.568627 0 0 0 1 0"/>
<feBlend mode="normal" in2="BackgroundImageFix" result="effect1_dropShadow_897_3959"/>
<feBlend mode="normal" in="SourceGraphic" in2="effect1_dropShadow_897_3959" result="shape"/>
</filter>
<filter id="filter16_d_897_3959" x="168.298" y="47.0021" width="5.03358" height="37.7598" filterUnits="userSpaceOnUse" color-interpolation-filters="sRGB">
<feFlood flood-opacity="0" result="BackgroundImageFix"/>
<feColorMatrix in="SourceAlpha" type="matrix" values="0 0 0 0 0 0 0 0 0 0 0 0 0 0 0 0 0 0 127 0" result="hardAlpha"/>
<feOffset/>
<feGaussianBlur stdDeviation="0.479922"/>
<feComposite in2="hardAlpha" operator="out"/>
<feColorMatrix type="matrix" values="0 0 0 0 0.113725 0 0 0 0 0.666667 0 0 0 0 0.568627 0 0 0 1 0"/>
<feBlend mode="normal" in2="BackgroundImageFix" result="effect1_dropShadow_897_3959"/>
<feBlend mode="normal" in="SourceGraphic" in2="effect1_dropShadow_897_3959" result="shape"/>
</filter>
<filter id="filter17_d_897_3959" x="173.267" y="32.5109" width="5.03358" height="47.4002" filterUnits="userSpaceOnUse" color-interpolation-filters="sRGB">
<feFlood flood-opacity="0" result="BackgroundImageFix"/>
<feColorMatrix in="SourceAlpha" type="matrix" values="0 0 0 0 0 0 0 0 0 0 0 0 0 0 0 0 0 0 127 0" result="hardAlpha"/>
<feOffset/>
<feGaussianBlur stdDeviation="0.479922"/>
<feComposite in2="hardAlpha" operator="out"/>
<feColorMatrix type="matrix" values="0 0 0 0 0.113725 0 0 0 0 0.666667 0 0 0 0 0.568627 0 0 0 1 0"/>
<feBlend mode="normal" in2="BackgroundImageFix" result="effect1_dropShadow_897_3959"/>
<feBlend mode="normal" in="SourceGraphic" in2="effect1_dropShadow_897_3959" result="shape"/>
</filter>
<filter id="filter18_d_897_3959" x="178.06" y="18.2301" width="5.03358" height="31.6199" filterUnits="userSpaceOnUse" color-interpolation-filters="sRGB">
<feFlood flood-opacity="0" result="BackgroundImageFix"/>
<feColorMatrix in="SourceAlpha" type="matrix" values="0 0 0 0 0 0 0 0 0 0 0 0 0 0 0 0 0 0 127 0" result="hardAlpha"/>
<feOffset/>
<feGaussianBlur stdDeviation="0.479922"/>
<feComposite in2="hardAlpha" operator="out"/>
<feColorMatrix type="matrix" values="0 0 0 0 0.113725 0 0 0 0 0.666667 0 0 0 0 0.568627 0 0 0 1 0"/>
<feBlend mode="normal" in2="BackgroundImageFix" result="effect1_dropShadow_897_3959"/>
<feBlend mode="normal" in="SourceGraphic" in2="effect1_dropShadow_897_3959" result="shape"/>
</filter>
<filter id="filter19_d_897_3959" x="182.999" y="22.7755" width="5.03364" height="13.7437" filterUnits="userSpaceOnUse" color-interpolation-filters="sRGB">
<feFlood flood-opacity="0" result="BackgroundImageFix"/>
<feColorMatrix in="SourceAlpha" type="matrix" values="0 0 0 0 0 0 0 0 0 0 0 0 0 0 0 0 0 0 127 0" result="hardAlpha"/>
<feOffset/>
<feGaussianBlur stdDeviation="0.479922"/>
<feComposite in2="hardAlpha" operator="out"/>
<feColorMatrix type="matrix" values="0 0 0 0 0.113725 0 0 0 0 0.666667 0 0 0 0 0.568627 0 0 0 1 0"/>
<feBlend mode="normal" in2="BackgroundImageFix" result="effect1_dropShadow_897_3959"/>
<feBlend mode="normal" in="SourceGraphic" in2="effect1_dropShadow_897_3959" result="shape"/>
</filter>
<filter id="filter20_d_897_3959" x="187.882" y="18.7306" width="5.03132" height="19.0911" filterUnits="userSpaceOnUse" color-interpolation-filters="sRGB">
<feFlood flood-opacity="0" result="BackgroundImageFix"/>
<feColorMatrix in="SourceAlpha" type="matrix" values="0 0 0 0 0 0 0 0 0 0 0 0 0 0 0 0 0 0 127 0" result="hardAlpha"/>
<feOffset/>
<feGaussianBlur stdDeviation="0.479922"/>
<feComposite in2="hardAlpha" operator="out"/>
<feColorMatrix type="matrix" values="0 0 0 0 0.113725 0 0 0 0 0.666667 0 0 0 0 0.568627 0 0 0 1 0"/>
<feBlend mode="normal" in2="BackgroundImageFix" result="effect1_dropShadow_897_3959"/>
<feBlend mode="normal" in="SourceGraphic" in2="effect1_dropShadow_897_3959" result="shape"/>
</filter>
<filter id="filter21_d_897_3959" x="192.763" y="24.3038" width="5.03358" height="13.885" filterUnits="userSpaceOnUse" color-interpolation-filters="sRGB">
<feFlood flood-opacity="0" result="BackgroundImageFix"/>
<feColorMatrix in="SourceAlpha" type="matrix" values="0 0 0 0 0 0 0 0 0 0 0 0 0 0 0 0 0 0 127 0" result="hardAlpha"/>
<feOffset/>
<feGaussianBlur stdDeviation="0.479922"/>
<feComposite in2="hardAlpha" operator="out"/>
<feColorMatrix type="matrix" values="0 0 0 0 0.113725 0 0 0 0 0.666667 0 0 0 0 0.568627 0 0 0 1 0"/>
<feBlend mode="normal" in2="BackgroundImageFix" result="effect1_dropShadow_897_3959"/>
<feBlend mode="normal" in="SourceGraphic" in2="effect1_dropShadow_897_3959" result="shape"/>
</filter>
<filter id="filter22_d_897_3959" x="197.703" y="0.613642" width="5.03358" height="31.3389" filterUnits="userSpaceOnUse" color-interpolation-filters="sRGB">
<feFlood flood-opacity="0" result="BackgroundImageFix"/>
<feColorMatrix in="SourceAlpha" type="matrix" values="0 0 0 0 0 0 0 0 0 0 0 0 0 0 0 0 0 0 127 0" result="hardAlpha"/>
<feOffset/>
<feGaussianBlur stdDeviation="0.479922"/>
<feComposite in2="hardAlpha" operator="out"/>
<feColorMatrix type="matrix" values="0 0 0 0 0.113725 0 0 0 0 0.666667 0 0 0 0 0.568627 0 0 0 1 0"/>
<feBlend mode="normal" in2="BackgroundImageFix" result="effect1_dropShadow_897_3959"/>
<feBlend mode="normal" in="SourceGraphic" in2="effect1_dropShadow_897_3959" result="shape"/>
</filter>
<linearGradient id="paint0_linear_897_3959" x1="347.77" y1="125.906" x2="349.59" y2="121.283" gradientUnits="userSpaceOnUse">
<stop stop-color="#1DAA91" stop-opacity="0"/>
<stop offset="1" stop-color="#1DAA91"/>
</linearGradient>
<linearGradient id="paint1_linear_897_3959" x1="45.8838" y1="12.9416" x2="42.7988" y2="-4.11025" gradientUnits="userSpaceOnUse">
<stop stop-color="#1DAA91" stop-opacity="0.2"/>
<stop offset="1" stop-color="#1DAA91"/>
</linearGradient>
<linearGradient id="paint2_linear_897_3959" x1="45.8838" y1="12.9416" x2="42.7988" y2="-4.11025" gradientUnits="userSpaceOnUse">
<stop stop-color="#1DAA91" stop-opacity="0.2"/>
<stop offset="1" stop-color="#1DAA91"/>
</linearGradient>
<linearGradient id="paint3_linear_897_3959" x1="67.6897" y1="120.831" x2="78.6419" y2="132.482" gradientUnits="userSpaceOnUse">
<stop stop-color="#1DAA91" stop-opacity="0"/>
<stop offset="1" stop-color="#1DAA91"/>
</linearGradient>
<linearGradient id="paint4_linear_897_3959" x1="117.644" y1="161.992" x2="118.676" y2="158.497" gradientUnits="userSpaceOnUse">
<stop stop-color="#1DAA91" stop-opacity="0"/>
<stop offset="1" stop-color="#1DAA91"/>
</linearGradient>
<linearGradient id="paint5_linear_897_3959" x1="67.7146" y1="43.7751" x2="67.7146" y2="-2.28221e-06" gradientUnits="userSpaceOnUse">
<stop stop-color="#1DAA91"/>
<stop offset="0.69" stop-color="#1DAA91" stop-opacity="0"/>
</linearGradient>
<linearGradient id="paint6_linear_897_3959" x1="82.8131" y1="108.892" x2="82.8131" y2="0" gradientUnits="userSpaceOnUse">
<stop stop-color="#1DAA91" stop-opacity="0.6"/>
<stop offset="1" stop-color="#1DAA91" stop-opacity="0.05"/>
</linearGradient>
<linearGradient id="paint7_linear_897_3959" x1="50.2846" y1="123.102" x2="50.074" y2="120.84" gradientUnits="userSpaceOnUse">
<stop stop-color="#1DAA91" stop-opacity="0"/>
<stop offset="1" stop-color="#1DAA91"/>
</linearGradient>
<linearGradient id="paint8_linear_897_3959" x1="240.537" y1="19" x2="259.287" y2="63.3547" gradientUnits="userSpaceOnUse">
<stop stop-color="#1DAA91" stop-opacity="0"/>
<stop offset="1" stop-color="#1DAA91" stop-opacity="0.6"/>
</linearGradient>
<linearGradient id="paint9_linear_897_3959" x1="141.537" y1="44.5" x2="163.574" y2="87.9812" gradientUnits="userSpaceOnUse">
<stop stop-color="#1DAA91" stop-opacity="0"/>
<stop offset="1" stop-color="#1DAA91" stop-opacity="0.4"/>
</linearGradient>
<linearGradient id="paint10_linear_897_3959" x1="167.574" y1="66.9814" x2="196.324" y2="116.481" gradientUnits="userSpaceOnUse">
<stop stop-color="#1DAA91" stop-opacity="0"/>
<stop offset="1" stop-color="#1DAA91" stop-opacity="0.6"/>
</linearGradient>
<clipPath id="clip0_897_3959">
<rect width="357" height="167" fill="white" transform="translate(0.0742188 0.481445)"/>
</clipPath>
<clipPath id="clip1_897_3959">
<rect width="368.77" height="302.886" fill="white" transform="matrix(0.866025 -0.5 0.866025 0.5 -74.9258 114.866)"/>
</clipPath>
<clipPath id="clip2_897_3959">
<rect width="165.626" height="108.892" rx="4.59748" transform="matrix(0.866025 -0.5 0.866025 0.5 93.8697 94.2776)" fill="white"/>
</clipPath>
<clipPath id="clip3_897_3959">
<rect width="80.829" height="64.1581" fill="white" transform="matrix(0.866025 -0.5 2.20305e-08 1 141.074 35.896)"/>
</clipPath>
</defs>
</svg>
