<svg width="39" height="40" viewBox="0 0 39 40" fill="none" xmlns="http://www.w3.org/2000/svg">
<g filter="url(#filter0_d_912_17150)">
<path d="M30.6328 6.14844H8.14025C7.7253 6.14844 7.38892 6.458 7.38892 6.83986V10.297C7.38892 10.6788 7.7253 10.9884 8.14025 10.9884H30.6328C31.0477 10.9884 31.3841 10.6788 31.3841 10.297V6.83986C31.3841 6.458 31.0477 6.14844 30.6328 6.14844Z" fill="url(#paint0_linear_912_17150)" shape-rendering="crispEdges"/>
<path d="M30.6376 12.5367H11.8912C11.4762 12.5367 11.1398 12.8463 11.1398 13.2281V16.6852C11.1398 17.0671 11.4762 17.3766 11.8912 17.3766H30.6376C31.0525 17.3766 31.3889 17.0671 31.3889 16.6852V13.2281C31.3889 12.8463 31.0525 12.5367 30.6376 12.5367Z" fill="url(#paint1_linear_912_17150)" shape-rendering="crispEdges"/>
<path d="M30.6325 18.92H15.6375C15.2225 18.92 14.8862 19.2295 14.8862 19.6114V23.0685C14.8862 23.4503 15.2225 23.7599 15.6375 23.7599H30.6325C31.0474 23.7599 31.3838 23.4503 31.3838 23.0685V19.6114C31.3838 19.2295 31.0474 18.92 30.6325 18.92Z" fill="url(#paint2_linear_912_17150)" shape-rendering="crispEdges"/>
<path d="M30.6332 25.3085H19.3896C18.9746 25.3085 18.6382 25.6181 18.6382 26V29.4571C18.6382 29.8389 18.9746 30.1484 19.3896 30.1484H30.6332C31.0482 30.1484 31.3846 29.8389 31.3846 29.4571V26C31.3846 25.6181 31.0482 25.3085 30.6332 25.3085Z" fill="url(#paint3_linear_912_17150)" shape-rendering="crispEdges"/>
</g>
<defs>
<filter id="filter0_d_912_17150" x="0.388916" y="1.14844" width="38" height="38" filterUnits="userSpaceOnUse" color-interpolation-filters="sRGB">
<feFlood flood-opacity="0" result="BackgroundImageFix"/>
<feColorMatrix in="SourceAlpha" type="matrix" values="0 0 0 0 0 0 0 0 0 0 0 0 0 0 0 0 0 0 127 0" result="hardAlpha"/>
<feOffset dy="2"/>
<feGaussianBlur stdDeviation="3.5"/>
<feComposite in2="hardAlpha" operator="out"/>
<feColorMatrix type="matrix" values="0 0 0 0 0.113725 0 0 0 0 0.666667 0 0 0 0 0.568627 0 0 0 0.2 0"/>
<feBlend mode="normal" in2="BackgroundImageFix" result="effect1_dropShadow_912_17150"/>
<feBlend mode="normal" in="SourceGraphic" in2="effect1_dropShadow_912_17150" result="shape"/>
</filter>
<linearGradient id="paint0_linear_912_17150" x1="19.3013" y1="6.14844" x2="19.3013" y2="37.9202" gradientUnits="userSpaceOnUse">
<stop stop-color="#37DDBF"/>
<stop offset="0.192308" stop-color="#1DAA91"/>
<stop offset="0.706731" stop-color="#1DAA91" stop-opacity="0.24"/>
<stop offset="1" stop-color="#1DAA91" stop-opacity="0"/>
</linearGradient>
<linearGradient id="paint1_linear_912_17150" x1="19.3013" y1="6.14844" x2="19.3013" y2="37.9202" gradientUnits="userSpaceOnUse">
<stop stop-color="#37DDBF"/>
<stop offset="0.192308" stop-color="#1DAA91"/>
<stop offset="0.706731" stop-color="#1DAA91" stop-opacity="0.24"/>
<stop offset="1" stop-color="#1DAA91" stop-opacity="0"/>
</linearGradient>
<linearGradient id="paint2_linear_912_17150" x1="19.3013" y1="6.14844" x2="19.3013" y2="37.9202" gradientUnits="userSpaceOnUse">
<stop stop-color="#37DDBF"/>
<stop offset="0.192308" stop-color="#1DAA91"/>
<stop offset="0.706731" stop-color="#1DAA91" stop-opacity="0.24"/>
<stop offset="1" stop-color="#1DAA91" stop-opacity="0"/>
</linearGradient>
<linearGradient id="paint3_linear_912_17150" x1="19.3013" y1="6.14844" x2="19.3013" y2="37.9202" gradientUnits="userSpaceOnUse">
<stop stop-color="#37DDBF"/>
<stop offset="0.192308" stop-color="#1DAA91"/>
<stop offset="0.706731" stop-color="#1DAA91" stop-opacity="0.24"/>
<stop offset="1" stop-color="#1DAA91" stop-opacity="0"/>
</linearGradient>
</defs>
</svg>
